<svg xmlns="http://www.w3.org/2000/svg" xmlns:xlink="http://www.w3.org/1999/xlink" viewBox="0 0 658.72 577.61"><defs><style>.cls-1{stroke-miterlimit:10;stroke-width:7px;fill:url(#Sfumatura_senza_nome_431);stroke:url(#Sfumatura_senza_nome_431-2);}.cls-2{fill:none;stroke:#fff;stroke-linecap:round;stroke-linejoin:round;}</style><linearGradient id="Sfumatura_senza_nome_431" x1="20.15" y1="-5.58" x2="605.23" y2="579.5" gradientUnits="userSpaceOnUse"><stop offset="0" stop-color="#bb29b1"/><stop offset="0.64" stop-color="#d75bbe"/></linearGradient><linearGradient id="Sfumatura_senza_nome_431-2" x1="17.68" y1="-8.05" x2="608.91" y2="583.18" xlink:href="#Sfumatura_senza_nome_431"/></defs><g id="Livello_2" data-name="Livello 2"><g id="Livello_1-2" data-name="Livello 1"><path class="cls-1" d="M654.06,343.64a25.1,25.1,0,0,1-8.41,14,2.83,2.83,0,0,1-4.63-1.79l-1.25-9.43s.45-18.29,2.45-23.06a11.2,11.2,0,0,0,0-8.77S626.54,266.15,625,251.23s-8.46-28.6-8.46-28.6c-5.08,14.15-.27,34-.27,34s14.31,49.3,9.29,85.08,0,158,0,158c-7,2.09-15.67,1.94-15.67,1.94-2.7,17-2.84,39.46-2.84,39.46,2.05,17,3.68,32.89,3.68,32.89H586.42c.28-14.7,4.72-25.92,5-33.3s-2-38.75-2-38.75H577.23s-.82,33.16.46,38.56c1.44,6,4,23.42,4.12,33.49H556.39c-.28-12.14,2.08-20.16,3.68-33.07.31-17.19-3.32-40.06-3.32-40.06-11.19.31-17.66-1.28-17.66-1.28,4.11-19.41.75-174.64.75-198.91,0-23.24,7.84-37.88,8.47-39.05-.38.51-3.14,3.35-15.9,2.28-14-1.18-24.7-40.26-24.7-40.26a57.64,57.64,0,0,0,1.26,14.8c4.57,9.58,13,74.07,12.45,102.63s-22.68,201.39-22.68,201.39l-6.13,0c1.51,4.16,3.26,31.51,3.26,31.51H469.21c-.32-15.1,2.57-31.57,2.57-31.57l-5.31,0L465.34,521l-.9,21.39-5.92-.16c1.69,1,5.92,25.65,5.91,31.71H436.6l.08-3.45c-.15-6.23,3.43-28.32,3.43-28.32l-6.7,0s-15.41-115.39-20-197.16S433.1,237,430.33,239.22s-14.26,11.6-14.26,11.6-9.49,13.73-16.94,15.18c-7.23,1.4-17.19-8.59-17.77-9.17a18.14,18.14,0,0,1,1.42,7.72c0,5.07-3.3,6.22-3.3,6.22,2,3.31,4.47,32.52,4.82,43.12s-8.56,68-9.92,76.56,0,25.29,0,41.71-10.75,99.18-10.75,99.18h-2.08c.59,3.28,4.61,42.64,4.61,42.64H343.43c-.31-7,4.69-42.79,4.69-42.79h-1.34s-1.65-68-3.28-75.93-.15-31.61,0-38.63-2.06-35.21-2.06-35.21l-1.31-62.23h-1.35s-1.25,53-1.25,62.56-3.51,22.59-2.48,34.39,1.24,30,1.24,40.18-3.94,75.41-3.94,75.41h-2.56c4.07,12.85,7,42.25,7,42.25H311.84c-.62-7.45,3.74-42.2,3.74-42.2h-3.3a448.44,448.44,0,0,0-4.58-62.5S304,441.1,304.19,433s1.45-22.58,1.45-30.65-3.73-28-3.73-28-5-38.12-7.47-57.59,5.18-46.62,5.18-46.62c-1.2-7.16,2-14.16,2.26-14.67-.5.55-8.73,9.49-17,9.49-8.49,0-32.9-26.49-32.9-26.49,0,9.15,1.38,13.31,1.38,13.31,5.82,13,10.12,36.67,10.12,36.67,3,10.7,9.07,119,4.29,120.05s-12.4.22-12.4.22c-.22,2.82,0,35.66-.86,43.5s-11.45,84.61-11.1,87.65c.33,2.85,6.09,32.82,5.36,34.06H223.29C222.43,567.9,230,539,230,539c.86-6.95-1.09-25.44-2.39-40.67s-4.57-55.45-3.27-70a213.57,213.57,0,0,0,.88-25.11c-3.73-2.54-7.81,0-7.81,0s-.67,19.87,0,28.18-4.7,103.77-4.47,106.89,6.33,32.33,5.63,35.68H194s.2-2.17.87-9.1,4-24.34,3.12-31.48-4-55.39-9.16-77.27-3.58-48-3.58-48c-13.17-.45-16.52-5.36-16.52-5.36,2.9-15.41,4.24-32.6,7.38-81.75s13.62-57.61,16.75-75.48-4.7-27.69-4.7-27.69-8.49,25.91-15.63,38.86-17.86,6.25-17.86,6.25l-16.75-7.82s13.62,38.42,12.28,62.76c-.94,17-6.54,51-9.85,70a107.85,107.85,0,0,0-1.38,23.67c.65,13.45-.58,31.36-1.28,41-.9,12.28-2.95,75.49-2.95,75.49-3.27.77-9.24.45-9.24.45S124.86,537,126,543c1.05,5.59,4.2,20.65,4.06,31H103.81c-.54-15.49,4.8-29.15,5.34-31.76s-.11-13.69-.11-13.69c-1.89-.1-3.74-.09-3.74-.09s.3-100.69,0-109.06-3.14-50.17-3.14-50.17l-1-43.91-2.1-.16s-1.19,36.3-.89,43.32-2.67,37.46-3.16,49.9S97.84,528,96.48,528.3a35.84,35.84,0,0,1-5.3.07v.42a121.87,121.87,0,0,0,.68,12.87c.65,5.63,6.22,25.64,5.35,32.33,0,0-24.06.28-27.72,0-3.41-.27,3.24-25.13,4.37-30.3S75,527.94,75,527.94a70.2,70.2,0,0,1-9.68-1.13s.45-56.5-2-75.85c-1.9-14.84-2.08-36.69-2.05-46.07a64.19,64.19,0,0,0-.69-9.39l-4.46-30.28c-5.17-35.11-5.17-56.94-5.17-56.94,4.5-45.7,18.67-62.35,18.67-62.35-1.12-9.68-7-42.31-15.75-59.86S22.14,97.18,22.14,97.18,13.77,46.5,9.79,34.35,3.71,22.83,3.51,14.87s3.76-4.4,3.76-4.4a2.56,2.56,0,0,1,1.29-3.2c2.12-1.24,3,0,3,0a2.45,2.45,0,0,1,1.28-2.21c1.33-.58,3.53.19,3.53.19s.88-1.75,2.13-1.75a3.17,3.17,0,0,1,2.6,1.18c.77.77,1.06,3.57,1.55,4.14a22.36,22.36,0,0,0,2.53,2.53,8.67,8.67,0,0,1,2.47,6.34c-.19,2.79-2.41,10.2-3.27,14.16-.31,1.38.06,4,.67,6.72A75.37,75.37,0,0,0,30.79,55c4.27,8.88,12.34,26,14.09,32.47C47.29,96.3,59.73,132,70.25,148c1.38,2.13,11.3,4.37,17.09-8.65a35.46,35.46,0,0,0,1.21-3.61C80.88,137.61,72,134,71.9,133.93c1.12-5.85.76-17.9.79-18.54.33-7.83,0-15.58,1.27-23.26,1.13-7,3-14,7.25-19.68,5.76-7.64,14.15-9.1,23.15-9.1,20.81,0,29.71,9.65,29.46,29.45-.06,5-.13,9.45-.41,13.52a2.53,2.53,0,0,1,0,.27c-1,11.85,1.19,28,1.19,28-3.12,2.18-12.59,1.35-16,1a16.32,16.32,0,0,0,.45,6.41c2.3,5.84,7.2,12.08,17.69,13.79,21,3.43,35.68,18.53,35.68,18.53s4.58-19,27.46-24.25,7.54-30.42,7.54-30.42l-1.8-4A13.25,13.25,0,0,1,198,105.6c-.1-5-1.23-13,2.91-12.15,2.17.44-2.29-21,14.7-24.26-7.49-.35-14.92-13.58-3.07-21.46,14-9.28,25.54,1.64,26.28,6.65,0,0,2.65,10.33-7,13.9,0,0,13.73,3.16,14.7,25.13,0,0,3.76-.48,3.28,4.5s-1.1,13.59-8.25,16.74c0,0-10,13.73-2.68,27.68,0,0,18.33-3,18.94,15.19,0,0,11.78,5.22,13.48,13.95,0,0,7.65,22.83,9,28.66s7.09-51.23,26.58-53.42a10.49,10.49,0,0,1-4-11.3c1.75-7.68,4.54-7,5.59-12.93s-3.71-11.71-2.95-16.19,2.49-7.44,1.85-12.16-.78-15.08,2.2-19.33,4.41-4.39,5.18-7.54S320.18,58,325.13,56c4.68-1.93,8.68-5.5,14.09-6.93a6.25,6.25,0,0,1,7.49,3.22c2.75-1.89,7.4-1.79,7.4-1.79,10.14-.2,12.51,7.1,20,20.48s1.61,16.4,1.89,21.42,2.19,7.49,3,13.47-3.79,11.47-4.17,15.17,2.09,10.8,3.88,16.87a15.15,15.15,0,0,1-.66,10.71c7.68,4.18,10.4,9.09,10.4,9.09,6.18,9.87,14.71,48.94,14.71,48.94,6.17-26.12,10.17-32.18,12.54-39.28a17.51,17.51,0,0,1,8.85-9.87,13,13,0,0,1,3.6-12c5.45-5.66,8.53-5.66,13.25-5a8.5,8.5,0,0,1,6.49,4.72,15.78,15.78,0,0,0,2.26-1.54,5.08,5.08,0,0,1-1.84-6.32c-2.31-3.09,1-7.47,1-7.47s-2.75-.07-3-4.62a17.05,17.05,0,0,0-.35-2.86c-.41-1.8-1-2.24-1.11-2.29h0c-4.09-9.44-4.22-22.91-4.22-22.91s.1-16.14,7-23.64,13.16-9.15,24.37-8.74a21.76,21.76,0,0,1,16.55,8s7.09,7.1,9.16,22.52a37.79,37.79,0,0,1-2.72,19.13.64.64,0,0,1,0,.07c-8.26,24,2.63,37.18,3.13,37.78l0,0a61.22,61.22,0,0,0,7.71,3.76c15.11,6.18,17.49,16.39,17.49,16.39,2.91-2.92,12.83-8.48,12.83-8.48,9.3-5.63,16.54-7.06,23.88-11.21-1.11-1.34-1.5-4.35-1.5-4.35a3.2,3.2,0,0,1-3.39-3.4c-5.67,5.68-4.73-1.1-4.73-1.1-4.1,0-4.73-5-4.73-5-3.78,0-2.36-5.51-2.36-5.51-3.79,0-2.69-4.43-2.69-4.43-5.59-5.59,1.27-5.35,1.27-5.35-5,0-4.1-4.89-4.1-4.89-3.47,0,0-5.83,0-5.83-4.57,0,0-4.88,0-4.88-5,0,0-5.53,0-5.53-4.57-4.56.16-6.78.16-6.78-3.54-3.54.47-4.25.47-4.25-2.83-2.84,0-6.15,0-6.15-3.79-3.78,2.2-4.41,2.2-4.41-1.25-6.14,3.47-5.51,3.47-5.51,0-4,3-3.47,3-3.47-4.49-4.49,3.69-5.26,3.69-5.26,0-5.81,3.24-3.24,3.24-3.24,0-5.86,6.11-2.57,6.11-2.57,0-3.9,4.52-1.22,4.52-1.22,0-4.76,4.64-1.71,4.64-1.71,0-4.76,5-1.34,5-1.34,3.74-3.73,6.24-.48,6.24-.48,3.42-3.43,5,1.94,5,1.94,3.67-3.66,6,0,6,0,2.81-2.81,4.89-.24,4.89-.24,4.15-4.15,7,1.59,7,1.59,3.73-3.73,4.77,2,4.77,2,3.54-2.56,5.37.74,5.37.74,4.15.24,2.53,3.14,2.53,3.14,4,.24,3.14,3.14,3.14,3.14,2.9-3.26,4.4.57,4.4.57,4,0,2.43,4.52,2.43,4.52,4.88-.69,5,3.48,5,3.48,2.9.24,2.9,2.44,2.9,2.44,3.25.34,2.78,5.44,2.78,5.44,2.66,1.4-.46,4.88-.46,4.88,3.83.81,1.16,5.33,1.16,5.33,1.15,2.55-2,3.71-2,3.71,3.83,2.66-.59,6.14-.59,6.14,2.9.93.81,4.76.81,4.76,3.49,1.74.24,5.33.24,5.33,1,3.13-2.2,4.06-2.2,4.06.93,5.33-2.17,6.17-2.17,6.17.69,3.52-3.87,4.43-3.87,4.43.91,4.33-2.16,4.67-2.16,4.67-.44,4.51-4.31,2.31-4.56,2.17,2.06,3.69-3,6.45-3,6.45-.23,3.47-5.55,2.78-5.55,2.78.47,3.92-3.69,2.77-3.69,2.77a5,5,0,0,1-2.07,1.65,77,77,0,0,0,14.18,8.65c13.37,6.46,14.14,15.06,15.83,28.9s8.15,67.21,8.15,67.21l8.61,62.42S657,331,654.06,343.64Z"/><path class="cls-2" d="M654.06,343.64a25.1,25.1,0,0,1-8.41,14,2.83,2.83,0,0,1-4.63-1.79l-1.25-9.43s.45-18.29,2.45-23.06a11.2,11.2,0,0,0,0-8.77S626.54,266.15,625,251.23s-8.46-28.6-8.46-28.6c-5.08,14.15-.27,34-.27,34s14.31,49.3,9.29,85.08,0,158,0,158c-7,2.09-15.67,1.94-15.67,1.94-2.7,17-2.84,39.46-2.84,39.46,2.05,17,3.68,32.89,3.68,32.89H586.42c.28-14.7,4.72-25.92,5-33.3s-2-38.75-2-38.75H577.23s-.82,33.16.46,38.56c1.44,6,4,23.42,4.12,33.49H556.39c-.28-12.14,2.08-20.16,3.68-33.07.31-17.19-3.32-40.06-3.32-40.06-11.19.31-17.66-1.28-17.66-1.28,4.11-19.41.75-174.64.75-198.91,0-23.24,7.84-37.88,8.47-39.05-.38.51-3.14,3.35-15.9,2.28-14-1.18-24.7-40.26-24.7-40.26a57.64,57.64,0,0,0,1.26,14.8c4.57,9.58,13,74.07,12.45,102.63s-22.68,201.39-22.68,201.39l-6.13,0c1.51,4.16,3.26,31.51,3.26,31.51H469.21c-.32-15.1,2.57-31.57,2.57-31.57l-5.31,0L465.34,521l-.9,21.39-5.92-.16c1.69,1,5.92,25.65,5.91,31.71H436.6l.08-3.45c-.15-6.23,3.43-28.32,3.43-28.32l-6.7,0s-15.41-115.39-20-197.16S433.1,237,430.33,239.22s-14.26,11.6-14.26,11.6-9.49,13.73-16.94,15.18c-7.23,1.4-17.19-8.59-17.77-9.17a18.14,18.14,0,0,1,1.42,7.72c0,5.07-3.3,6.22-3.3,6.22,2,3.31,4.47,32.52,4.82,43.12s-8.56,68-9.92,76.56,0,25.29,0,41.71-10.75,99.18-10.75,99.18h-2.08c.59,3.28,4.61,42.64,4.61,42.64H343.43c-.31-7,4.69-42.79,4.69-42.79h-1.34s-1.65-68-3.28-75.93-.15-31.61,0-38.63-2.06-35.21-2.06-35.21l-1.31-62.23h-1.35s-1.25,53-1.25,62.56-3.51,22.59-2.48,34.39,1.24,30,1.24,40.18-3.94,75.41-3.94,75.41h-2.56c4.07,12.85,7,42.25,7,42.25H311.84c-.62-7.45,3.74-42.2,3.74-42.2h-3.3a448.44,448.44,0,0,0-4.58-62.5S304,441.1,304.19,433s1.45-22.58,1.45-30.65-3.73-28-3.73-28-5-38.12-7.47-57.59,5.18-46.62,5.18-46.62c-1.2-7.16,2-14.16,2.26-14.67-.5.55-8.73,9.49-17,9.49-8.49,0-32.9-26.49-32.9-26.49,0,9.15,1.38,13.31,1.38,13.31,5.82,13,10.12,36.67,10.12,36.67,3,10.7,9.07,119,4.29,120.05s-12.4.22-12.4.22c-.22,2.82,0,35.66-.86,43.5s-11.45,84.61-11.1,87.65c.33,2.85,6.09,32.82,5.36,34.06H223.29C222.43,567.9,230,539,230,539c.86-6.95-1.09-25.44-2.39-40.67s-4.57-55.45-3.27-70a213.57,213.57,0,0,0,.88-25.11c-3.73-2.54-7.81,0-7.81,0s-.67,19.87,0,28.18-4.7,103.77-4.47,106.89,6.33,32.33,5.63,35.68H194s.2-2.17.87-9.1,4-24.34,3.12-31.48-4-55.39-9.16-77.27-3.58-48-3.58-48c-13.17-.45-16.52-5.36-16.52-5.36,2.9-15.41,4.24-32.6,7.38-81.75s13.62-57.61,16.75-75.48-4.7-27.69-4.7-27.69-8.49,25.91-15.63,38.86-17.86,6.25-17.86,6.25l-16.75-7.82s13.62,38.42,12.28,62.76c-.94,17-6.54,51-9.85,70a107.85,107.85,0,0,0-1.38,23.67c.65,13.45-.58,31.36-1.28,41-.9,12.28-2.95,75.49-2.95,75.49-3.27.77-9.24.45-9.24.45S124.86,537,126,543c1.05,5.59,4.2,20.65,4.06,31H103.81c-.54-15.49,4.8-29.15,5.34-31.76s-.11-13.69-.11-13.69c-1.89-.1-3.74-.09-3.74-.09s.3-100.69,0-109.06-3.14-50.17-3.14-50.17l-1-43.91-2.1-.16s-1.19,36.3-.89,43.32-2.67,37.46-3.16,49.9S97.84,528,96.48,528.3a35.84,35.84,0,0,1-5.3.07v.42a121.87,121.87,0,0,0,.68,12.87c.65,5.63,6.22,25.64,5.35,32.33,0,0-24.06.28-27.72,0-3.41-.27,3.24-25.13,4.37-30.3S75,527.94,75,527.94a70.2,70.2,0,0,1-9.68-1.13s.45-56.5-2-75.85c-1.9-14.84-2.08-36.69-2.05-46.07a64.19,64.19,0,0,0-.69-9.39l-4.46-30.28c-5.17-35.11-5.17-56.94-5.17-56.94,4.5-45.7,18.67-62.35,18.67-62.35-1.12-9.68-7-42.31-15.75-59.86S22.14,97.18,22.14,97.18,13.77,46.5,9.79,34.35,3.71,22.83,3.51,14.87s3.76-4.4,3.76-4.4a2.56,2.56,0,0,1,1.29-3.2c2.12-1.24,3,0,3,0a2.45,2.45,0,0,1,1.28-2.21c1.33-.58,3.53.19,3.53.19s.88-1.75,2.13-1.75a3.17,3.17,0,0,1,2.6,1.18c.77.77,1.06,3.57,1.55,4.14a22.36,22.36,0,0,0,2.53,2.53,8.67,8.67,0,0,1,2.47,6.34c-.19,2.79-2.41,10.2-3.27,14.16-.31,1.38.06,4,.67,6.72A75.37,75.37,0,0,0,30.79,55c4.27,8.88,12.34,26,14.09,32.47C47.29,96.3,59.73,132,70.25,148c1.38,2.13,11.3,4.37,17.09-8.65a35.46,35.46,0,0,0,1.21-3.61C80.88,137.61,72,134,71.9,133.93c1.12-5.85.76-17.9.79-18.54.33-7.83,0-15.58,1.27-23.26,1.13-7,3-14,7.25-19.68,5.76-7.64,14.15-9.1,23.15-9.1,20.81,0,29.71,9.65,29.46,29.45-.06,5-.13,9.45-.41,13.52a2.53,2.53,0,0,1,0,.27c-1,11.85,1.19,28,1.19,28-3.12,2.18-12.59,1.35-16,1a16.32,16.32,0,0,0,.45,6.41c2.3,5.84,7.2,12.08,17.69,13.79,21,3.43,35.68,18.53,35.68,18.53s4.58-19,27.46-24.25,7.54-30.42,7.54-30.42l-1.8-4A13.25,13.25,0,0,1,198,105.6c-.1-5-1.23-13,2.91-12.15,2.17.44-2.29-21,14.7-24.26-7.49-.35-14.92-13.58-3.07-21.46,14-9.28,25.54,1.64,26.28,6.65,0,0,2.65,10.33-7,13.9,0,0,13.73,3.16,14.7,25.13,0,0,3.76-.48,3.28,4.5s-1.1,13.59-8.25,16.74c0,0-10,13.73-2.68,27.68,0,0,18.33-3,18.94,15.19,0,0,11.78,5.22,13.48,13.95,0,0,7.65,22.83,9,28.66s7.09-51.23,26.58-53.42a10.49,10.49,0,0,1-4-11.3c1.75-7.68,4.54-7,5.59-12.93s-3.71-11.71-2.95-16.19,2.49-7.44,1.85-12.16-.78-15.08,2.2-19.33,4.41-4.39,5.18-7.54S320.18,58,325.13,56c4.68-1.93,8.68-5.5,14.09-6.93a6.25,6.25,0,0,1,7.49,3.22c2.75-1.89,7.4-1.79,7.4-1.79,10.14-.2,12.51,7.1,20,20.48s1.61,16.4,1.89,21.42,2.19,7.49,3,13.47-3.79,11.47-4.17,15.17,2.09,10.8,3.88,16.87a15.15,15.15,0,0,1-.66,10.71c7.68,4.18,10.4,9.09,10.4,9.09,6.18,9.87,14.71,48.94,14.71,48.94,6.17-26.12,10.17-32.18,12.54-39.28a17.51,17.51,0,0,1,8.85-9.87,13,13,0,0,1,3.6-12c5.45-5.66,8.53-5.66,13.25-5a8.5,8.5,0,0,1,6.49,4.72,15.78,15.78,0,0,0,2.26-1.54,5.08,5.08,0,0,1-1.84-6.32c-2.31-3.09,1-7.47,1-7.47s-2.75-.07-3-4.62a17.05,17.05,0,0,0-.35-2.86c-.41-1.8-1-2.24-1.11-2.29h0c-4.09-9.44-4.22-22.91-4.22-22.91s.1-16.14,7-23.64,13.16-9.15,24.37-8.74a21.76,21.76,0,0,1,16.55,8s7.09,7.1,9.16,22.52a37.79,37.79,0,0,1-2.72,19.13.64.64,0,0,1,0,.07c-8.26,24,2.63,37.18,3.13,37.78l0,0a61.22,61.22,0,0,0,7.71,3.76c15.11,6.18,17.49,16.39,17.49,16.39,2.91-2.92,12.83-8.48,12.83-8.48,9.3-5.63,16.54-7.06,23.88-11.21-1.11-1.34-1.5-4.35-1.5-4.35a3.2,3.2,0,0,1-3.39-3.4c-5.67,5.68-4.73-1.1-4.73-1.1-4.1,0-4.73-5-4.73-5-3.78,0-2.36-5.51-2.36-5.51-3.79,0-2.69-4.43-2.69-4.43-5.59-5.59,1.27-5.35,1.27-5.35-5,0-4.1-4.89-4.1-4.89-3.47,0,0-5.83,0-5.83-4.57,0,0-4.88,0-4.88-5,0,0-5.53,0-5.53-4.57-4.56.16-6.78.16-6.78-3.54-3.54.47-4.25.47-4.25-2.83-2.84,0-6.15,0-6.15-3.79-3.78,2.2-4.41,2.2-4.41-1.25-6.14,3.47-5.51,3.47-5.51,0-4,3-3.47,3-3.47-4.49-4.49,3.69-5.26,3.69-5.26,0-5.81,3.24-3.24,3.24-3.24,0-5.86,6.11-2.57,6.11-2.57,0-3.9,4.52-1.22,4.52-1.22,0-4.76,4.64-1.71,4.64-1.71,0-4.76,5-1.34,5-1.34,3.74-3.73,6.24-.48,6.24-.48,3.42-3.43,5,1.94,5,1.94,3.67-3.66,6,0,6,0,2.81-2.81,4.89-.24,4.89-.24,4.15-4.15,7,1.59,7,1.59,3.73-3.73,4.77,2,4.77,2,3.54-2.56,5.37.74,5.37.74,4.15.24,2.53,3.14,2.53,3.14,4,.24,3.14,3.14,3.14,3.14,2.9-3.26,4.4.57,4.4.57,4,0,2.43,4.52,2.43,4.52,4.88-.69,5,3.48,5,3.48,2.9.24,2.9,2.44,2.9,2.44,3.25.34,2.78,5.44,2.78,5.44,2.66,1.4-.46,4.88-.46,4.88,3.83.81,1.16,5.33,1.16,5.33,1.15,2.55-2,3.71-2,3.71,3.83,2.66-.59,6.14-.59,6.14,2.9.93.81,4.76.81,4.76,3.49,1.74.24,5.33.24,5.33,1,3.13-2.2,4.06-2.2,4.06.93,5.33-2.17,6.17-2.17,6.17.69,3.52-3.87,4.43-3.87,4.43.91,4.33-2.16,4.67-2.16,4.67-.44,4.51-4.31,2.31-4.56,2.17,2.06,3.69-3,6.45-3,6.45-.23,3.47-5.55,2.78-5.55,2.78.47,3.92-3.69,2.77-3.69,2.77a5,5,0,0,1-2.07,1.65,77,77,0,0,0,14.18,8.65c13.37,6.46,14.14,15.06,15.83,28.9s8.15,67.21,8.15,67.21l8.61,62.42S657,331,654.06,343.64Z"/></g></g></svg>