<svg xmlns="http://www.w3.org/2000/svg" viewBox="0 0 65.93 63.2"><defs><style>.cls-1{fill:#d75bbe;stroke-width:1.5px;}.cls-1,.cls-2{stroke:#d75bbe;stroke-linecap:round;stroke-linejoin:round;}.cls-2,.cls-3{fill:#fff;}</style></defs><g id="Livello_2" data-name="Livello 2"><g id="Livello_1-2" data-name="Livello 1"><path class="cls-1" d="M65.18,47.05V61.66a.78.78,0,0,1-.79.78H47.28a.85.85,0,0,1-.56-.23.83.83,0,0,1-.23-.56V47.05a9.37,9.37,0,0,1,4.85-8.18,1,1,0,0,0,.49-.84,1,1,0,0,0-.48-.85,9.08,9.08,0,1,1,8.81.09h0l-.16.09c-.26.17-.64.6.16,1.41a9.2,9.2,0,0,1,3.48,3.13A9.35,9.35,0,0,1,65.18,47.05Z"/><path class="cls-1" d="M19.44,47.05V61.66a.79.79,0,0,1-.79.78H1.54A.83.83,0,0,1,1,62.22a.79.79,0,0,1-.23-.56V47.05A9.32,9.32,0,0,1,5.6,38.87a1,1,0,0,0,0-1.69,9.08,9.08,0,1,1,8.81.09h0a1,1,0,0,0-.16.09c-.26.17-.65.6.16,1.41a9.33,9.33,0,0,1,5,8.28Z"/><path class="cls-1" d="M45.85,38.69a.8.8,0,0,1-.67.38h-20a3,3,0,0,1-3-3V25.28a3,3,0,0,1,.87-2.09,3,3,0,0,1,2.09-.87H40.57a3,3,0,0,1,3,3V33.5l2.34,4.41A.8.8,0,0,1,45.85,38.69Z"/><path class="cls-1" d="M43.43,3.71V14.53a2.94,2.94,0,0,1-3,3h-20a.78.78,0,0,1-.67-.38.76.76,0,0,1,0-.77l2.34-4.42V3.71a3,3,0,0,1,3-3H40.48a3,3,0,0,1,3,3Z"/><path class="cls-2" d="M17.89,42.3a9.26,9.26,0,0,0-3.54-3.43,1,1,0,0,1-.49-.84,1,1,0,0,1,.48-.85,9.08,9.08,0,1,0-9,0,1,1,0,0,1,.48.85,1,1,0,0,1-.49.84A9.37,9.37,0,0,0,.5,47.06v14.6a.8.8,0,0,0,.24.56.76.76,0,0,0,.55.23H18.41a.76.76,0,0,0,.55-.23.8.8,0,0,0,.24-.56V47.06A9.27,9.27,0,0,0,17.89,42.3Zm-.27,18.57H2.08V47.06a7.74,7.74,0,0,1,4-6.81,2.55,2.55,0,0,0,0-4.43,7.51,7.51,0,1,1,7.42,0,2.55,2.55,0,0,0,0,4.43,7.74,7.74,0,0,1,4,6.81Z"/><path class="cls-2" d="M63.8,42.3a9.26,9.26,0,0,0-3.54-3.43,1,1,0,0,1-.49-.84,1,1,0,0,1,.48-.85,9.08,9.08,0,1,0-9,0,1,1,0,0,1,.48.85,1,1,0,0,1-.49.84,9.37,9.37,0,0,0-4.85,8.19v14.6a.8.8,0,0,0,.24.56.76.76,0,0,0,.55.23H64.32a.76.76,0,0,0,.55-.23.8.8,0,0,0,.24-.56V47.06A9.27,9.27,0,0,0,63.8,42.3Zm-.27,18.57H48V47.06a7.74,7.74,0,0,1,4-6.81,2.55,2.55,0,0,0,0-4.43,7.51,7.51,0,1,1,7.42,0,2.55,2.55,0,0,0,0,4.43,7.74,7.74,0,0,1,4,6.81Z"/><path class="cls-3" d="M38.36,9.11V9a.79.79,0,1,0-1.57,0v.11a.79.79,0,1,0,1.57,0Z"/><path class="cls-3" d="M32.3,9v.11a.79.79,0,0,0,.79.82.82.82,0,0,0,.57-.24.83.83,0,0,0,.21-.58V9a.78.78,0,0,0-.78-.75A.79.79,0,0,0,32.3,9Z"/><path class="cls-3" d="M27.81,9v.11A.81.81,0,0,0,28,9.7a.77.77,0,0,0,.57.25.76.76,0,0,0,.57-.25.81.81,0,0,0,.22-.59V9a.79.79,0,0,0-1.58,0Z"/><path class="cls-2" d="M42.56,1.62a3,3,0,0,0-2-.85H25.1A2.92,2.92,0,0,0,23,1.62a2.94,2.94,0,0,0-.87,2.09v8.21L19.8,16.34a.78.78,0,0,0,.69,1.15h20a2.94,2.94,0,0,0,3-3V3.71A3,3,0,0,0,42.56,1.62Zm-.71,12.92a1.39,1.39,0,0,1-1.39,1.39H21.79l1.83-3.44v0l0-.08a.14.14,0,0,0,0-.07.19.19,0,0,1,0-.07V3.71a1.39,1.39,0,0,1,.41-1,1.41,1.41,0,0,1,1-.41H40.46a1.39,1.39,0,0,1,1.39,1.39Z"/><path class="cls-3" d="M28.86,30.68v-.11a.79.79,0,1,0-1.57,0v.11a.79.79,0,1,0,1.57,0Z"/><path class="cls-3" d="M33.35,30.68v-.11a.79.79,0,1,0-1.58,0v.11a.79.79,0,0,0,1.58,0Z"/><path class="cls-3" d="M37.83,30.68v-.11a.79.79,0,0,0-1.57,0v.11a.8.8,0,0,0,.22.58.79.79,0,0,0,1.13,0A.8.8,0,0,0,37.83,30.68Z"/><path class="cls-2" d="M45.86,37.91,43.52,33.5V25.29a3,3,0,0,0-3-3H25.19a3,3,0,0,0-3,3V36.11a3,3,0,0,0,3,3h20a.79.79,0,0,0,.7-1.16ZM25.19,37.5a1.39,1.39,0,0,1-1.39-1.39V25.29a1.39,1.39,0,0,1,1.39-1.39H40.56A1.39,1.39,0,0,1,42,25.29v8.44a.19.19,0,0,0,0,.08s0,0,0,.08,0,0,0,.07L42,34l0,0,1.82,3.43Z"/><path class="cls-2" d="M15.45,29.94v-.43a.79.79,0,0,0-.79-.79H5.5a.79.79,0,0,0-.79.79v.43a5.37,5.37,0,1,0,10.74,0Zm-5.37,3.79h0a3.79,3.79,0,0,1-3.77-3.44h7.55a3.79,3.79,0,0,1-3.78,3.44Z"/><path d="M61.16,29.94v-.43a.78.78,0,0,0-.78-.79H51.21a.79.79,0,0,0-.79.79v.43a5.37,5.37,0,1,0,10.74,0Zm-5.37,3.79h0a3.78,3.78,0,0,1-2.55-1A3.85,3.85,0,0,1,52,30.29h7.55a3.79,3.79,0,0,1-1.23,2.45,3.74,3.74,0,0,1-2.55,1Z"/><path class="cls-2" d="M61.18,29.94v-.43a.79.79,0,0,0-.79-.79H51.22a.78.78,0,0,0-.78.79v.43a5.37,5.37,0,0,0,10.74,0Zm-5.37,3.79h0A3.79,3.79,0,0,1,52,30.29h7.54a3.82,3.82,0,0,1-1.22,2.45,3.78,3.78,0,0,1-2.55,1Z"/></g></g></svg>