<svg xmlns="http://www.w3.org/2000/svg" viewBox="0 0 55.27 64.87"><defs><style>.cls-1{fill:#d75bbe;stroke-width:3px;}.cls-1,.cls-2{stroke:#d75bbe;stroke-linecap:round;stroke-linejoin:round;}.cls-2{fill:#fff;stroke-width:0.65px;}</style></defs><g id="Livello_2" data-name="Livello 2"><g id="Livello_1-2" data-name="Livello 1"><path class="cls-1" d="M49.87,15.56H43.54a.86.86,0,0,0-.37-.53l-2.72-1.52,1.81-1A1.35,1.35,0,0,0,43,11.23,1.45,1.45,0,0,0,42.26,10L27.67,1.59a.57.57,0,0,0-.46-.07l-.16.07,0,0L12.33,10.12c-1.49.86-2.16,1.8-2.16,3.22a1.64,1.64,0,0,0,.05.74,2.47,2.47,0,0,0,1,1.42H4.54a3,3,0,0,0-3,3V49.27a3.16,3.16,0,0,0,3.15,3.15H20.43v3.41h-1.6a6.92,6.92,0,0,0-6.94,6.92.62.62,0,0,0,.62.62H42.57a.62.62,0,0,0,.62-.62,6.92,6.92,0,0,0-6.93-6.92h-1.6V52.42H51A2.75,2.75,0,0,0,53.77,50V19.46A3.89,3.89,0,0,0,49.87,15.56Zm-8.2.34a1.12,1.12,0,0,1,.18-.21l.1.06Z"/><path class="cls-2" d="M41.83,14.14a.62.62,0,0,0-.87.19.61.61,0,0,0,.19.86l.8.56L28.54,23.42a.91.91,0,0,1-.84.07h0a.58.58,0,0,1-.21-.15,1.22,1.22,0,0,1-.29-.84,2.27,2.27,0,0,1,1.49-2.16l13.6-7.86A1.35,1.35,0,0,0,43,11.23,1.45,1.45,0,0,0,42.26,10L27.67,1.59a.57.57,0,0,0-.46-.07l-.16.07,0,0L12.33,10.12c-1.49.86-2.16,1.8-2.16,3.22a1.64,1.64,0,0,0,.05.74,2.58,2.58,0,0,0,1.24,1.55l15.46,9,.09,0h0l0,0a1.92,1.92,0,0,0,1,.25,2.84,2.84,0,0,0,1.17-.31l13.91-8.06A.89.89,0,0,0,43.17,15ZM25.94,22.46l-13.86-8a1,1,0,0,1-.62-.74.48.48,0,0,1-.06-.25V13.4a2.17,2.17,0,0,1,1.21-2l12,6.65a.54.54,0,0,0,.3.06.59.59,0,0,0,.56-.31.62.62,0,0,0-.24-.86L13.9,10.64,27.36,2.87l14.35,8.3c.06,0,.06.06.06.13s0,.12-.06.12L28.1,19.27A3.5,3.5,0,0,0,25.94,22.46Z"/><path class="cls-2" d="M43,25.24l-7.63,4.4v2.5a1,1,0,0,1-.48.84l-2,1.21a1,1,0,0,1-1.52-.86V32l-2.17,1.24a2,2,0,0,1-2.1.06,0,0,0,0,1,0,0,.35.35,0,0,1-.18,0l-15.46-9a2.57,2.57,0,0,1-1.24-1.56,1.59,1.59,0,0,1-.05-.73c0-1.43.67-2.36,2.16-3.23l.68-.42a.62.62,0,1,1,.68,1l-.68.44c-1.12.68-1.55,1.23-1.55,2.17v.06a.45.45,0,0,0,.06.24,1.11,1.11,0,0,0,.62.75l13.87,8a3.49,3.49,0,0,1,2.15-3.12l13.61-7.85V20c0-.07,0-.13-.06-.13a.63.63,0,0,1-.25-.86.62.62,0,0,1,.87-.25A1.49,1.49,0,0,1,43.07,20a1.36,1.36,0,0,1-.74,1.23L28.72,29.05a2.29,2.29,0,0,0-1.48,2.16,1.47,1.47,0,0,0,.14.64.74.74,0,0,0,.35.35,1.06,1.06,0,0,0,.19.06.83.83,0,0,0,.67-.12l2.75-1.58a.88.88,0,0,1,1.33.76v1.5L34.16,32V29.3a1.09,1.09,0,0,0,0-.26,1.07,1.07,0,0,0-.64-.86.62.62,0,0,1-.25-.87.63.63,0,0,1,.86-.25,2.48,2.48,0,0,1,1.09,1.22L42,24.41l-.8-.56a.63.63,0,1,1,.68-1.05l1.25.82A1,1,0,0,1,43,25.24Z"/><path class="cls-2" d="M49.87,15.56H47.33a.68.68,0,0,0-.62.62.62.62,0,0,0,.62.62h2.54a2.6,2.6,0,0,1,2.59,2.59V45.31H2.8V18.47a1.75,1.75,0,0,1,1.74-1.74H8.8a.65.65,0,0,0,.62-.61.62.62,0,0,0-.62-.62H4.54a3,3,0,0,0-3,3V49.27a3.16,3.16,0,0,0,3.15,3.15H20.43v3.41h-1.6a6.92,6.92,0,0,0-6.94,6.92.62.62,0,0,0,.62.62H42.57a.62.62,0,0,0,.62-.62,6.92,6.92,0,0,0-6.93-6.92h-1.6V52.42H51A2.75,2.75,0,0,0,53.77,50V19.46A3.89,3.89,0,0,0,49.87,15.56ZM36.26,57.06a5.69,5.69,0,0,1,5.63,5.07H13.2a5.68,5.68,0,0,1,5.63-5.07Zm-2.84-1.23H21.67V52.42H33.42Zm19-6a1.36,1.36,0,0,1-1.35,1.35H4.72A1.92,1.92,0,0,1,2.8,49.27V46.55H52.46Z"/></g></g></svg>