<svg xmlns="http://www.w3.org/2000/svg" viewBox="0 0 107.63 63.59"><defs><style>.cls-1,.cls-2{fill:#d75bbe;}.cls-1,.cls-2,.cls-3{stroke:#d75bbe;stroke-linecap:round;stroke-linejoin:round;}.cls-1{stroke-width:2px;}.cls-2{stroke-width:3.5px;}.cls-3{fill:#fff;stroke-width:2.5px;fill-rule:evenodd;}</style></defs><g id="Livello_2" data-name="Livello 2"><g id="Livello_1-2" data-name="Livello 1"><path class="cls-1" d="M98.41,42.37a5.77,5.77,0,0,1-2.78,2.91c-9,4.16-27.09,12.28-27.09,12.28a48.43,48.43,0,0,1-21.17,4.17c-8.94-.46-16.5-6.42-24.14-8.39C16.7,51.67,2.63,49.9,2.63,49.9a1.77,1.77,0,0,1-1.23-.62A1.8,1.8,0,0,1,1,47.94V30.72a1.71,1.71,0,0,1,.54-1.27A1.75,1.75,0,0,1,2.84,29H13.09l16.35-2.92h.06a14.6,14.6,0,0,1,9.24,1.85L47,32.61l.12,0,15.79-7a5.56,5.56,0,0,1,4.18-.1,6.12,6.12,0,0,1,3.08,2.81,6.86,6.86,0,0,1,.29.69l3.14-1.36a5.39,5.39,0,0,1,4.17-.08,6,6,0,0,1,3.08,2.8,5.42,5.42,0,0,1,.44,1.2l1-.41a5.59,5.59,0,0,1,4.14,0h0a5.59,5.59,0,0,1,3.06,2.77,5.53,5.53,0,0,1,.46,1.31l1.28-.49a5.68,5.68,0,0,1,7.17,2.81A5.76,5.76,0,0,1,98.41,42.37Z"/><path class="cls-2" d="M105.83,8.38l-1.3,14.14a1.59,1.59,0,0,1-.47,1.2,1.86,1.86,0,0,1-1.25.54l-7.09.21a12.13,12.13,0,0,1-7-1.95l-5.46-3.58-6.83-.59a4.68,4.68,0,0,1-4.34-4.23l-8,2a5,5,0,0,1-3.42-.27v0a4.64,4.64,0,0,1-2.33-2.39h0a4.37,4.37,0,0,1,2.8-5.82l14.73-4.8A24.6,24.6,0,0,1,89.17,2.7L104.5,6.32a1.89,1.89,0,0,1,1.11.77A1.65,1.65,0,0,1,105.83,8.38Z"/><path class="cls-3" d="M98.36,38.13a5.64,5.64,0,0,0-7.14-2.81l-1.28.48a5.94,5.94,0,0,0-.46-1.3,5.53,5.53,0,0,0-3-2.77v0a5.62,5.62,0,0,0-4.13.05l-1,.4A5.89,5.89,0,0,0,80.84,31a6.08,6.08,0,0,0-3.08-2.81,5.41,5.41,0,0,0-4.16.08l-3.13,1.37a7,7,0,0,0-.28-.69,6.15,6.15,0,0,0-3.08-2.82,5.58,5.58,0,0,0-4.17.1l-15.74,7-.11,0-8.2-4.72a14.51,14.51,0,0,0-9.21-1.85h-.06l-16.3,2.92H3.1a1.75,1.75,0,0,0-1.28,3A1.71,1.71,0,0,0,3.1,33H13.48l.3,0,16.36-2.93a11,11,0,0,1,7,1.43l8.33,4.79.25.12,13.85,5.23A3.13,3.13,0,0,1,61.48,43a4.86,4.86,0,0,1,.41,2.08,1.74,1.74,0,0,1-.7,1.37,4,4,0,0,1-2.58.47L39.74,43.5a2.2,2.2,0,0,0-.37,0,1.79,1.79,0,0,0-1,.3,1.74,1.74,0,0,0-.74,1.15A1.78,1.78,0,0,0,38,46.24a1.73,1.73,0,0,0,1.17.7l19,3.49.19,0a7.25,7.25,0,0,0,4.87-1.12,5.47,5.47,0,0,0,2.18-4,1.15,1.15,0,0,0,0-.19A8.86,8.86,0,0,0,65,42.42L83.59,35a2.12,2.12,0,0,1,2.76,1.07h0a2.16,2.16,0,0,1,.24,1c-7.07,2.56-18.34,6.57-18.34,6.57a1.77,1.77,0,0,0-1,.89,1.83,1.83,0,0,0-.07,1.34,1.74,1.74,0,0,0,.88,1,1.67,1.67,0,0,0,1.33.07s18.41-6.55,23-8.29a2.68,2.68,0,0,1,2.79,1,2,2,0,0,1,0,1.86,2.72,2.72,0,0,1-1.06,1.18c-9,4.15-27,12.28-27,12.28A45,45,0,0,1,47.68,58.8c-7.39-.38-14.77-6-23.38-8.27-7.09-1.82-21-3.53-21-3.53h0A1.76,1.76,0,0,0,2,47.31a1.67,1.67,0,0,0-.7,1.19,1.78,1.78,0,0,0,.38,1.34,1.75,1.75,0,0,0,1.23.62s14,1.77,20.54,3.45c7.62,2,15.15,7.92,24.07,8.38a48,48,0,0,0,21.1-4.16s18-8.13,27-12.29a5.69,5.69,0,0,0,2.77-2.9A5.76,5.76,0,0,0,98.36,38.13Zm-34-8.76a2.11,2.11,0,0,1,2.68,1.09s0,.05,0,.05a2.28,2.28,0,0,1,.16.52l-12,5.22L51.86,35ZM62.89,39.5a8.74,8.74,0,0,0-2.1-1.14l-.9-.34L75,31.43a2.14,2.14,0,0,1,2.71,1.08,1.78,1.78,0,0,1,.23,1Z"/><path class="cls-3" d="M105.8,7.82a1.68,1.68,0,0,1-.82,1,1.86,1.86,0,0,1-1.37.18L88.3,5.4A20.93,20.93,0,0,0,77,5.4L62.3,10.19a1.07,1.07,0,0,0-.66,1.43.1.1,0,0,0,0,0,1.06,1.06,0,0,0,1.31.63H63L73.2,9.8a4.78,4.78,0,0,1,4-1.56l11.14,1a1.92,1.92,0,0,1,1.23.6A1.63,1.63,0,0,1,90,11.05a1.55,1.55,0,0,1-.63,1.14,1.88,1.88,0,0,1-1.13.39H88l-11.15-1a1,1,0,0,0-1.15.92l0,.75a1.06,1.06,0,0,0,1,1.16l7.32.64a1.84,1.84,0,0,1,.86.29l5.86,3.84a8.28,8.28,0,0,0,4.78,1.34l7.1-.22a2,2,0,0,1,1.3.45A1.71,1.71,0,0,1,104.5,22a1.6,1.6,0,0,1-.47,1.2,1.86,1.86,0,0,1-1.25.54l-7.09.21a12.13,12.13,0,0,1-7-1.95l-5.46-3.58-6.83-.59a4.68,4.68,0,0,1-4.34-4.23l-8,1.95a5,5,0,0,1-3.42-.27v0a4.64,4.64,0,0,1-2.33-2.39h0A4.37,4.37,0,0,1,61.09,7L75.82,2.2a24.6,24.6,0,0,1,13.32-.06l15.33,3.62a1.89,1.89,0,0,1,1.11.77A1.64,1.64,0,0,1,105.8,7.82Z"/></g></g></svg>