<svg xmlns="http://www.w3.org/2000/svg" viewBox="0 0 83.37 66.39"><defs><style>.cls-1{fill:#d75bbe;}.cls-2{fill:#fff;}</style></defs><g id="Livello_2" data-name="Livello 2"><g id="Livello_1-2" data-name="Livello 1"><path class="cls-1" d="M24.09,15.68V3.09H16V22l-2.8,2.19V64.39H33V50.48c0-2.65,1.46-8.6,8.65-8.48,7.52.13,8.66,5.13,8.66,8.57V64.39H70.14V24.23L81.37,33,41.56,2,2,33"/><path class="cls-1" d="M70.14,66.39H50.35a2,2,0,0,1-2-2V50.57c0-4.46-2.07-6.49-6.7-6.57a6.3,6.3,0,0,0-4.71,1.59A7.22,7.22,0,0,0,35,50.48V64.39a2,2,0,0,1-2,2H13.23a2,2,0,0,1-2-2V28.28l-8,6.26A2,2,0,0,1,.77,31.39L14,21V3.08a2,2,0,0,1,2-2h8.06a2,2,0,0,1,2,2v8.49L40.33.43a2,2,0,0,1,2.46,0l39.81,31a2,2,0,0,1-2.46,3.16l-8-6.23V64.39A2,2,0,0,1,70.14,66.39Zm-17.79-4H68.14V25.21L41.57,4.54,25.35,17.23l-.06.05L15.23,25.15V62.39H31V50.48a11.21,11.21,0,0,1,3.1-7.74A10.05,10.05,0,0,1,41.72,40c6.76.12,10.63,4,10.63,10.57ZM18,5.08v12.8l4.06-3.18V5.08Z"/><path class="cls-2" d="M70.14,64.79H50.35a.4.4,0,0,1-.4-.4V50.57c0-5.33-2.78-8.08-8.27-8.17a7.88,7.88,0,0,0-5.86,2.05,8.89,8.89,0,0,0-2.38,6V64.39a.4.4,0,0,1-.4.4H13.23a.4.4,0,0,1-.4-.4V25L2.25,33.28a.39.39,0,0,1-.56-.07.4.4,0,0,1,.06-.56L15.63,21.79V3.08a.39.39,0,0,1,.4-.39h8.06a.39.39,0,0,1,.4.39V14.86L41.31,1.69a.41.41,0,0,1,.5,0l39.81,31a.41.41,0,0,1,.07.56.39.39,0,0,1-.56.07L70.54,25.05V64.39A.4.4,0,0,1,70.14,64.79ZM50.75,64h19V24.43L41.56,2.51,24.35,16l0,0L13.63,24.37V64h19V50.48a9.59,9.59,0,0,1,2.62-6.6,8.61,8.61,0,0,1,6.43-2.28c5.93.1,9.06,3.21,9.06,9ZM16.43,3.48V21.16l7.26-5.68v-12Z"/></g></g></svg>