<svg xmlns="http://www.w3.org/2000/svg" viewBox="0 0 65 65.18"><defs><style>.cls-1{fill:#d75bbe;}.cls-2{fill:#fff;}</style></defs><g id="Livello_2" data-name="Livello 2"><g id="Livello_1-2" data-name="Livello 1"><path class="cls-1" d="M63.91,39.47V44a4.22,4.22,0,0,1-4.21,4.21H43.6A4.22,4.22,0,0,1,39.39,44V39.47h4.38l7.62-26.1,7.94,26.1Z"/><path class="cls-2" d="M59.7,48.34H43.6A4.33,4.33,0,0,1,39.28,44V39.47a.11.11,0,0,1,.11-.11h4.3l7.59-26a.15.15,0,0,1,.11-.08h0a.11.11,0,0,1,.1.08l7.92,26h4.5a.11.11,0,0,1,.11.11V44A4.33,4.33,0,0,1,59.7,48.34ZM39.5,39.58V44a4.11,4.11,0,0,0,4.1,4.1H59.7A4.11,4.11,0,0,0,63.8,44V39.58H59.33a.1.1,0,0,1-.1-.08L51.39,13.76,43.88,39.5a.12.12,0,0,1-.11.08Z"/><path class="cls-1" d="M25.61,39.47V44a4.22,4.22,0,0,1-4.21,4.21H5.3A4.22,4.22,0,0,1,1.09,44V39.47H5.47L13,13.81l8,25.66Z"/><path class="cls-2" d="M21.4,48.34H5.3A4.33,4.33,0,0,1,1,44V39.47a.11.11,0,0,1,.11-.11h4.3l7.55-25.58a.11.11,0,0,1,.1-.08h0a.12.12,0,0,1,.11.08l8,25.58h4.5a.11.11,0,0,1,.11.11V44A4.33,4.33,0,0,1,21.4,48.34ZM1.2,39.58V44a4.11,4.11,0,0,0,4.1,4.1H21.4A4.11,4.11,0,0,0,25.5,44V39.58H21a.1.1,0,0,1-.1-.07L13.05,14.19,5.58,39.5a.12.12,0,0,1-.11.08Z"/><polygon class="cls-1" points="21.03 39.47 13.04 13.81 13.09 13.67 21.03 39.47"/><path class="cls-2" d="M21,39.58a.11.11,0,0,1-.1-.07l-8-25.67a.06.06,0,0,1,0-.06l0-.14a.12.12,0,0,1,.21,0l8,25.8a.12.12,0,0,1-.08.14Z"/><path class="cls-1" d="M44.32,58.44v5.65h-23V58.44a4.19,4.19,0,0,1,4.2-4.19H40.12A4.19,4.19,0,0,1,44.32,58.44Z"/><path class="cls-2" d="M44.32,64.2h-23a.11.11,0,0,1-.11-.11V58.44a4.31,4.31,0,0,1,4.31-4.3H40.12a4.31,4.31,0,0,1,4.31,4.3v5.65A.11.11,0,0,1,44.32,64.2ZM21.45,64H44.21V58.44a4.1,4.1,0,0,0-4.09-4.09H25.54a4.09,4.09,0,0,0-4.09,4.09Z"/><path class="cls-1" d="M59.71,49.31H43.59A5.29,5.29,0,0,1,38.3,44V39.46a1.09,1.09,0,0,1,1.09-1.09H63.91A1.09,1.09,0,0,1,65,39.46V44A5.3,5.3,0,0,1,59.71,49.31ZM40.49,40.56V44a3.1,3.1,0,0,0,3.1,3.1H59.71a3.1,3.1,0,0,0,3.1-3.1V40.56Z"/><path class="cls-1" d="M59.33,40.56H43.77a1.1,1.1,0,0,1-1.05-1.4l7.61-26.09a1.09,1.09,0,0,1,1-.79h0a1.09,1.09,0,0,1,1,.78l7.94,26.08a1.11,1.11,0,0,1-1,1.42Zm-14.1-2.19H57.85L51.4,17.2Z"/><path class="cls-1" d="M21.41,49.31H5.29A5.3,5.3,0,0,1,0,44V39.46a1.09,1.09,0,0,1,1.09-1.09H25.61a1.09,1.09,0,0,1,1.09,1.09V44A5.29,5.29,0,0,1,21.41,49.31ZM2.19,40.56V44a3.1,3.1,0,0,0,3.1,3.1H21.41a3.1,3.1,0,0,0,3.1-3.1V40.56Z"/><path class="cls-1" d="M21,40.56H5.47a1.11,1.11,0,0,1-1-1.41L12,13.5a1.11,1.11,0,0,1,1-.79,1.1,1.1,0,0,1,1.06.77l8,25.66a1.09,1.09,0,0,1-1,1.42ZM6.94,38.37h12.6L13.07,17.58Z"/><path class="cls-1" d="M44.32,65.18h-23a1.1,1.1,0,0,1-1.1-1.1V58.44a5.31,5.31,0,0,1,5.3-5.3H40.12a5.3,5.3,0,0,1,5.29,5.3v5.64A1.09,1.09,0,0,1,44.32,65.18ZM22.43,63H43.22V58.44a3.1,3.1,0,0,0-3.1-3.11H25.54a3.11,3.11,0,0,0-3.11,3.11Z"/><path class="cls-1" d="M32.69,55.33a1.09,1.09,0,0,1-1.09-1.09V1.09a1.1,1.1,0,0,1,2.19,0V54.24A1.09,1.09,0,0,1,32.69,55.33Z"/><path class="cls-1" d="M57.33,15.5a19.34,19.34,0,0,1-6.11-1,36.92,36.92,0,0,1-8.18-4c-3-1.82-5.35-3.27-10.35-3.32s-7.37,1.5-10.35,3.32a36.7,36.7,0,0,1-8.18,4c-6.92,2.31-11.58,0-11.78-.06a1.1,1.1,0,1,1,1-2s4.1,2,10.11,0A34.78,34.78,0,0,0,21.2,8.63C24.27,6.76,26.94,5.13,32.29,5h.81c5.34.13,8,1.76,11.08,3.63a34.78,34.78,0,0,0,7.73,3.77c6,2,10.08.07,10.12,0a1.1,1.1,0,0,1,1.46.5A1.09,1.09,0,0,1,63,14.41,13.43,13.43,0,0,1,57.33,15.5Z"/><path class="cls-2" d="M63.91,39.25H59.49L51.72,13.72a18.29,18.29,0,0,0,5.63.92,12.46,12.46,0,0,0,5.26-1,.22.22,0,0,0,.1-.29.23.23,0,0,0-.3-.1s-4.38,2.12-10.77,0l-.19-.06a35.74,35.74,0,0,1-7.72-3.79C40.76,7.57,38.17,6,33,5.88h-.11V1.1a.22.22,0,1,0-.44,0V5.87h-.1c-5.16.11-7.74,1.69-10.71,3.5a35.77,35.77,0,0,1-7.91,3.85l-.72.23-.07,0c-6,1.71-10-.22-10-.24a.22.22,0,0,0-.29.1.21.21,0,0,0,.1.29c.17.09,4,2,10,.35L5.3,39.25H1.1a.22.22,0,0,0-.22.22V44A4.42,4.42,0,0,0,5.3,48.44H21.41A4.43,4.43,0,0,0,25.83,44V39.47a.22.22,0,0,0-.22-.22H21.19L13.36,13.81c.17,0,.35-.1.53-.16a36.37,36.37,0,0,0,8-3.89C25,7.89,27.38,6.4,32.47,6.32V54H25.54a4.42,4.42,0,0,0-4.42,4.42v5.65a.22.22,0,0,0,.22.22h23a.22.22,0,0,0,.22-.22V58.44A4.42,4.42,0,0,0,40.12,54H32.91V6.32C38,6.4,40.44,7.89,43.5,9.76a37.31,37.31,0,0,0,7.61,3.76l-7.5,25.73H39.4a.22.22,0,0,0-.22.22V44a4.42,4.42,0,0,0,4.42,4.42H59.71A4.43,4.43,0,0,0,64.13,44V39.47A.22.22,0,0,0,63.91,39.25Zm-38.52.44V44a4,4,0,0,1-4,4H5.3a4,4,0,0,1-4-4V39.69Zm-4.66-.44h-15l7.32-24.83ZM40.12,54.46a4,4,0,0,1,4,4v5.43H21.56V58.44a4,4,0,0,1,4-4ZM51.39,14.14,59,39.25h-15ZM63.69,44a4,4,0,0,1-4,4H43.6a4,4,0,0,1-4-4V39.69H63.69Z"/><polygon class="cls-1" points="20.73 39.25 5.77 39.25 13.09 14.42 20.73 39.25"/><path class="cls-1" d="M25.39,39.69V44a4,4,0,0,1-4,4H5.3a4,4,0,0,1-4-4V39.69Z"/><path class="cls-1" d="M63.69,39.69V44a4,4,0,0,1-4,4H43.6a4,4,0,0,1-4-4V39.69Z"/><polygon class="cls-1" points="59.03 39.25 44.06 39.25 51.39 14.14 59.03 39.25"/><path class="cls-1" d="M44.1,58.44v5.43H21.56V58.44a4,4,0,0,1,4-4H40.12A4,4,0,0,1,44.1,58.44Z"/></g></g></svg>