<svg width="23" height="32" viewBox="0 0 23 32" fill="none" xmlns="http://www.w3.org/2000/svg">
<path d="M11.5147 1.22412C5.71228 1.22412 1 5.96491 1 11.8024C1 17.5074 5.50497 22.1597 11.1253 22.3682V26.2984H7.6205C7.40535 26.2984 7.23096 26.4738 7.23096 26.6903C7.23096 26.9067 7.40535 27.0822 7.6205 27.0822H11.1253V30.6081C11.1253 30.8246 11.2997 31 11.5148 31C11.7299 31 11.9043 30.8246 11.9043 30.6081V27.0822H15.4091C15.6243 27.0822 15.7986 26.9067 15.7986 26.6903C15.7986 26.4738 15.6243 26.2984 15.4091 26.2984H11.9043V22.3682C17.5247 22.1594 22.0296 17.5069 22.0296 11.8024C22.0296 5.96491 17.3173 1.22412 11.5149 1.22412H11.5147ZM11.5147 2.00763C16.8963 2.00763 21.2505 6.38819 21.2505 11.8024C21.2505 17.2165 16.8963 21.5971 11.5147 21.5971C6.13307 21.5971 1.77887 17.2163 1.77887 11.8024C1.77887 6.38819 6.13307 2.00763 11.5147 2.00763V2.00763Z" fill="#F782EB" stroke="#C95DBE" stroke-width="1.5"/>
<path fill-rule="evenodd" clip-rule="evenodd" d="M11.5008 7.11127C11.7256 7.11127 11.9078 7.2946 11.9078 7.52076V12.3482C11.9078 12.5744 11.7256 12.7577 11.5008 12.7577C11.276 12.7577 11.0938 12.5744 11.0938 12.3482V7.52076C11.0938 7.2946 11.276 7.11127 11.5008 7.11127Z" fill="#C95DBE" stroke="#C95DBE" stroke-width="1.5" stroke-linecap="round" stroke-linejoin="round"/>
<path fill-rule="evenodd" clip-rule="evenodd" d="M11.0938 15.9723C11.0938 15.7461 11.276 15.5627 11.5008 15.5627H11.5112C11.736 15.5627 11.9182 15.7461 11.9182 15.9723C11.9182 16.1985 11.736 16.3818 11.5112 16.3818H11.5008C11.276 16.3818 11.0938 16.1985 11.0938 15.9723Z" fill="#C95DBE" stroke="#C95DBE" stroke-width="1.5" stroke-linecap="round" stroke-linejoin="round"/>
</svg>
