<svg xmlns="http://www.w3.org/2000/svg" viewBox="0 0 70.73 64.43"><defs><style>.cls-1{fill:#d75bbe;stroke-width:2px;}.cls-1,.cls-2{stroke:#d75bbe;stroke-linecap:round;stroke-linejoin:round;}.cls-2{fill:#fff;}</style></defs><g id="Livello_2" data-name="Livello 2"><g id="Livello_1-2" data-name="Livello 1"><path class="cls-1" d="M54.15,38a3.36,3.36,0,0,1-.26.85,3.47,3.47,0,0,1-.27.59,4.21,4.21,0,0,1-1,1.11S48.25,43.37,48,43.46l-22,7.9.12.06,12.58,6.79a.81.81,0,0,1,.47.68.77.77,0,0,1-.07.39.32.32,0,0,1,0,.09,1.1,1.1,0,0,1-.25.28l-4.06,2.93a4.49,4.49,0,0,1-2.26.84A4.58,4.58,0,0,1,30.09,63L16.74,56.28,14.3,58a4.6,4.6,0,0,1-2.76.9,4.81,4.81,0,0,1-.75,0A4.72,4.72,0,0,1,7.72,57L1.89,48.92A4.74,4.74,0,0,1,3,42.34L10,37.24,27.07,14.93l.83-.77,3.68-2.66a3.82,3.82,0,0,1,2.91-.69A3.88,3.88,0,0,1,37,12.38l16.4,22.7A3.94,3.94,0,0,1,54.15,38Z"/><path class="cls-1" d="M54.85,29.39a.85.85,0,0,0,.85-.78,14.06,14.06,0,0,0-11-15.22.86.86,0,1,0-.39,1.67A12.35,12.35,0,0,1,54,28.46a.86.86,0,0,0,.78.93Z"/><path class="cls-1" d="M62.51,27.29h0a.86.86,0,0,1-.85.77h-.09a.85.85,0,0,1-.76-.93A16.57,16.57,0,0,0,47.71,9a.85.85,0,0,1-.55-.37A.88.88,0,0,1,47,8a.86.86,0,0,1,.39-.54.9.9,0,0,1,.66-.11,18.25,18.25,0,0,1,14.43,20Z"/><path class="cls-1" d="M56.34,3.31a.88.88,0,0,1-.84.7.68.68,0,0,1-.32-.07,23.15,23.15,0,0,0-4-1.25.85.85,0,0,1-.66-1,.84.84,0,0,1,1-.66,23.41,23.41,0,0,1,4.26,1.34A.84.84,0,0,1,56.34,3.31Z"/><path class="cls-1" d="M69.73,23.32A23.92,23.92,0,0,1,69.6,26a.86.86,0,0,1-.85.76h-.09a.85.85,0,0,1-.76-.94A22.61,22.61,0,0,0,68,23.35,20.91,20.91,0,0,0,64.09,11,20.68,20.68,0,0,0,58.4,5.62a.86.86,0,0,1,.92-1.45A22.17,22.17,0,0,1,65.47,10,22.52,22.52,0,0,1,69.73,23.32Z"/><path class="cls-2" d="M11.37,45.67a.86.86,0,0,0-1.2-.19l-2.4,1.73A.87.87,0,0,0,7.6,48.4a.85.85,0,0,0,1.17.2l2.41-1.73A.86.86,0,0,0,11.37,45.67ZM13.78,49a.86.86,0,0,0-1.2-.19l-2.39,1.73a.86.86,0,1,0,1,1.39l2.39-1.74A.84.84,0,0,0,13.78,49Zm0,0a.86.86,0,0,0-1.2-.19l-2.39,1.73a.86.86,0,1,0,1,1.39l2.39-1.74A.84.84,0,0,0,13.78,49Zm-2.41-3.34a.86.86,0,0,0-1.2-.19l-2.4,1.73A.87.87,0,0,0,7.6,48.4a.85.85,0,0,0,1.17.2l2.41-1.73A.86.86,0,0,0,11.37,45.67Zm1.21,3.15-2.39,1.73a.86.86,0,1,0,1,1.39l2.39-1.74A.84.84,0,0,0,13.78,49,.86.86,0,0,0,12.58,48.82Zm-1.21-3.15a.86.86,0,0,0-1.2-.19l-2.4,1.73A.87.87,0,0,0,7.6,48.4a.85.85,0,0,0,1.17.2l2.41-1.73A.86.86,0,0,0,11.37,45.67Z"/><path class="cls-2" d="M53.5,35.09,37,12.31a3.91,3.91,0,0,0-5.47-.87l-3.69,2.67-.83.76L9.92,37.26,2.84,42.38a4.66,4.66,0,0,0-1.49,1.81A4.37,4.37,0,0,0,1,45.46,4.75,4.75,0,0,0,1.78,49l5.85,8.09A4.73,4.73,0,0,0,10.71,59a4.85,4.85,0,0,0,.76.05,4.71,4.71,0,0,0,2.76-.89l2.45-1.77,13.39,6.69a4.44,4.44,0,0,0,4.65-.38l4.07-2.93a1,1,0,0,0,.25-.29.32.32,0,0,0,0-.09.75.75,0,0,0,.07-.39.84.84,0,0,0-.47-.68L26.05,51.48l-.12-.06,22.25-7.69h0l.1,0,.08-.05,0,0c.91-.59,4.07-3,4.2-3a4,4,0,0,0,1.05-1.11,3.43,3.43,0,0,0,.28-.58A3.55,3.55,0,0,0,54.2,38,4,4,0,0,0,53.5,35.09ZM13.23,56.74A3,3,0,0,1,9,56.06L3.17,48a3,3,0,0,1,.68-4.2l6.49-4.69,9.38,13ZM37,59.21l-3.24,2.08a2.79,2.79,0,0,1-1.4.53,2.91,2.91,0,0,1-1.48-.29l-12.59-6.3L21.31,53l2.42-.83Zm-13.07-8.9-1.36.47-1.29.44L11.6,37.89,27.83,16.64l18.7,25.85ZM52.5,37.73a2.12,2.12,0,0,1-.88,1.44c-.22.16-2.37,1.56-3.57,2.48l-19-26.28,3.52-2.55a2.18,2.18,0,0,1,1.64-.39,2.22,2.22,0,0,1,1.44.88L52.12,36.1A2.23,2.23,0,0,1,52.5,37.73Z"/><path class="cls-2" d="M13.59,50.2,11.2,51.94A.88.88,0,0,1,10,51.75a.86.86,0,0,1,.2-1.2l2.39-1.73a.87.87,0,0,1,1.2.18A.85.85,0,0,1,13.59,50.2Z"/><path class="cls-2" d="M54.91,29.38a.85.85,0,0,0,.85-.78,14.09,14.09,0,0,0-11-15.27A.86.86,0,1,0,44.34,15a12.4,12.4,0,0,1,9.72,13.45.85.85,0,0,0,.78.93Z"/><path class="cls-2" d="M47.74,8.93A16.6,16.6,0,0,1,60.88,27.12a.87.87,0,0,0,.77.94h.09a.86.86,0,0,0,.85-.78h0a18.3,18.3,0,0,0-14.48-20,.82.82,0,0,0-.65.1.86.86,0,0,0-.27,1.2.91.91,0,0,0,.55.37Z"/><path class="cls-2" d="M55.56,3.91a.85.85,0,0,0,.84-.69.86.86,0,0,0-.51-1A25.59,25.59,0,0,0,51.61.92a.86.86,0,0,0-.36,1.68,24.29,24.29,0,0,1,4,1.25.88.88,0,0,0,.32.07Z"/><path class="cls-2" d="M58.47,5.53a20.72,20.72,0,0,1,5.71,5.37h0A21.25,21.25,0,0,1,68,25.78a.85.85,0,0,0,.76.94.14.14,0,0,0,.09,0,.87.87,0,0,0,.86-.76h0A23,23,0,0,0,65.57,9.89a22.41,22.41,0,0,0-6.19-5.81.86.86,0,1,0-.91,1.45Z"/></g></g></svg>