<svg xmlns="http://www.w3.org/2000/svg" viewBox="0 0 64.13 64.13"><defs><style>.cls-1{fill:#d75bbe;stroke-width:4px;}.cls-1,.cls-2{stroke:#d75bbe;stroke-linecap:round;stroke-linejoin:round;}.cls-2{fill:#fff;stroke-width:2px;}</style></defs><g id="Livello_2" data-name="Livello 2"><g id="Livello_1-2" data-name="Livello 1"><circle class="cls-1" cx="32.06" cy="32.06" r="30.06"/><path class="cls-2" d="M32.12,2A29.91,29.91,0,0,0,11,10.68a1,1,0,0,0-.26.25A30,30,0,1,0,53.21,53.32a.75.75,0,0,0,.25-.25A30,30,0,0,0,32.12,2ZM4.94,32a27.08,27.08,0,0,1,7-18.19L50.31,52.18A27.16,27.16,0,0,1,4.94,32ZM52.29,50.19,13.93,11.82A27.17,27.17,0,0,1,52.29,50.19Z"/></g></g></svg>