<svg xmlns="http://www.w3.org/2000/svg" viewBox="0 0 42.36 64.89"><defs><style>.cls-1{fill:#d75bbe;stroke-width:2.5px;}.cls-1,.cls-2,.cls-3{stroke:#d75bbe;}.cls-1,.cls-2,.cls-3,.cls-4{stroke-linecap:round;stroke-linejoin:round;}.cls-2,.cls-3{fill:#fff;}.cls-2{stroke-width:0.6px;}.cls-3,.cls-4{stroke-width:0.5px;}.cls-4{fill:none;stroke:#fff;}</style></defs><g id="Livello_2" data-name="Livello 2"><g id="Livello_1-2" data-name="Livello 1"><rect class="cls-1" x="1.25" y="1.25" width="39.86" height="62.39" rx="2.24"/><path class="cls-2" d="M21.74,7.67l-.43,0a3.24,3.24,0,0,0-.44,0,15.26,15.26,0,0,0,0,30.51l.44,0,.43,0a15.26,15.26,0,0,0,0-30.51ZM17.38,9.56a11.12,11.12,0,0,0-1.84,2.71A17.6,17.6,0,0,0,14.48,15H9.89A13.85,13.85,0,0,1,17.38,9.56ZM9,16.28H14.1a27.18,27.18,0,0,0-.74,6h-6A13.87,13.87,0,0,1,9,16.28ZM7.38,23.59h6a27.16,27.16,0,0,0,.74,6H9A13.87,13.87,0,0,1,7.38,23.59Zm2.49,7.3h4.61a17.35,17.35,0,0,0,1.06,2.66,11.31,11.31,0,0,0,1.89,2.78A13.93,13.93,0,0,1,9.87,30.89Zm10.77,5.9c-1.43-.32-2.81-1.66-3.9-3.84a17,17,0,0,1-.85-2.06h4.75Zm0-7.23H15.49a26.11,26.11,0,0,1-.8-6h6Zm0-7.3h-6a26.67,26.67,0,0,1,.81-6h5.15Zm0-7.31H15.89a16.52,16.52,0,0,1,.85-2.07c1.09-2.19,2.47-3.49,3.9-3.8Zm14.59,7.31h-6a27.18,27.18,0,0,0-.74-6h5.06A13.87,13.87,0,0,1,35.23,22.26ZM32.72,15H28.13a18.7,18.7,0,0,0-1.05-2.68,11.43,11.43,0,0,0-1.85-2.71A13.85,13.85,0,0,1,32.72,15ZM22,9.08c1.43.31,2.81,1.61,3.9,3.8A16.52,16.52,0,0,1,26.72,15H22Zm0,7.2h5.15a26.11,26.11,0,0,1,.81,6H22Zm0,7.31h6a26.09,26.09,0,0,1-.81,6H22Zm0,13.2v-5.9h4.75A17,17,0,0,1,25.87,33C24.78,35.13,23.4,36.47,22,36.79Zm3.22-.46a11.59,11.59,0,0,0,1.89-2.78,19.65,19.65,0,0,0,1.06-2.66h4.6A13.94,13.94,0,0,1,25.19,36.33Zm8.38-6.77H28.51a27.76,27.76,0,0,0,.75-6h6A13.87,13.87,0,0,1,33.57,29.56Z"/><path class="cls-3" d="M35.25,46.36a.65.65,0,0,1-.66.66H8A.66.66,0,1,1,8,45.7H34.59A.65.65,0,0,1,35.25,46.36Z"/><path class="cls-3" d="M35.25,49.44a.65.65,0,0,1-.66.66H8a.66.66,0,1,1,0-1.32H34.59A.65.65,0,0,1,35.25,49.44Z"/><path class="cls-3" d="M35.25,52.53a.65.65,0,0,1-.66.66H8a.66.66,0,1,1,0-1.32H34.59A.65.65,0,0,1,35.25,52.53Z"/><rect class="cls-4" x="1.68" y="1.7" width="38.99" height="61.48" rx="2.24"/></g></g></svg>