<svg xmlns="http://www.w3.org/2000/svg" viewBox="0 0 81.87 62.35"><defs><style>.cls-1{fill:#d75bbe;stroke-width:2.5px;}.cls-1,.cls-2{stroke:#d75bbe;stroke-linecap:round;stroke-linejoin:round;}.cls-2,.cls-3{fill:#fff;stroke-width:1.25px;}.cls-3{stroke:#fff;stroke-miterlimit:10;}</style></defs><g id="Livello_2" data-name="Livello 2"><g id="Livello_1-2" data-name="Livello 1"><path class="cls-1" d="M68.91,35.67v2h-.14a6.55,6.55,0,0,1-.72-1,7.91,7.91,0,0,1,.34-1Z"/><path class="cls-1" d="M68.39,35.67a7.91,7.91,0,0,0-.34,1,6.55,6.55,0,0,0,.72,1h.14v-2Z"/><path class="cls-1" d="M80.62,7.54V31.36a6.3,6.3,0,0,1-6.29,6.3c-.38,0-4.59,0-5.42,0v-2h-.52a7.91,7.91,0,0,0-.34,1,6.55,6.55,0,0,0,.72,1h.14v3.87a6.15,6.15,0,0,1-6.14,6.14H38L27,60.73a1,1,0,0,1-.78.37,1.36,1.36,0,0,1-.35-.07,1,1,0,0,1-.67-1V47.67H7.39a6.15,6.15,0,0,1-6.14-6.14V18.39a6.15,6.15,0,0,1,6.14-6.14h3.53S11,8.1,11,7.54A6.28,6.28,0,0,1,17.3,1.25h57a6.28,6.28,0,0,1,6.29,6.29Z"/><path class="cls-2" d="M78.78,3.1a6.34,6.34,0,0,0-4.45-1.85h-57A6.3,6.3,0,0,0,11,7.55c0,.56-.09,4.71-.09,4.71H7.39A6.15,6.15,0,0,0,1.25,18.4V41.54a6.15,6.15,0,0,0,6.14,6.14H25.15v12.4a1,1,0,0,0,.67,1,1.07,1.07,0,0,0,.35.06,1,1,0,0,0,.79-.36L38,47.68h24.8a6.15,6.15,0,0,0,6.13-6.14V37.66h5.42a6.28,6.28,0,0,0,6.29-6.29V7.55A6.29,6.29,0,0,0,78.78,3.1ZM66.86,41.54a4.09,4.09,0,0,1-1.19,2.89,4.15,4.15,0,0,1-2.9,1.21H37.51a1,1,0,0,0-.79.37L27.1,57.49l.1-10.83a1,1,0,0,0-1-1H7.39a4.14,4.14,0,0,1-2.89-1.2,4.09,4.09,0,0,1-1.2-2.9V18.4a4.1,4.1,0,0,1,4.09-4.09H62.77a4.08,4.08,0,0,1,4.09,4.09ZM78.57,31.38a4.27,4.27,0,0,1-4.24,4.24c-.33,0-4,.05-5.42.06V18.4a6.15,6.15,0,0,0-6.13-6.14H13c0-.9.07-4.23.07-4.71a4.25,4.25,0,0,1,4.23-4.24h57a4.27,4.27,0,0,1,4.24,4.24Z"/><path class="cls-3" d="M49.5,29.7V30a1,1,0,0,1-2,0V29.7A1,1,0,0,1,49.22,29,1,1,0,0,1,49.5,29.7Z"/><path class="cls-3" d="M36.11,29.7V30a1,1,0,0,1-2,0V29.7a1,1,0,1,1,2,0Z"/><path class="cls-3" d="M22.71,29.7V30a1,1,0,0,1-2.05,0V29.7a1,1,0,0,1,.28-.75,1,1,0,0,1,.74-.32,1,1,0,0,1,.74.32A1,1,0,0,1,22.71,29.7Z"/></g></g></svg>