<svg xmlns="http://www.w3.org/2000/svg" viewBox="0 0 66.25 58.8"><defs><style>.cls-1{fill:none;}.cls-1,.cls-2,.cls-3{stroke:#d75bbe;stroke-linecap:round;stroke-linejoin:round;}.cls-1,.cls-2{stroke-width:4px;}.cls-2{fill:#d75bbe;}.cls-3{fill:#fff;stroke-width:0.8px;}</style></defs><g id="Livello_2" data-name="Livello 2"><g id="Livello_1-2" data-name="Livello 1"><rect class="cls-1" x="22.86" y="2" width="20.69" height="9.36"/><rect class="cls-2" x="2" y="9.39" width="62.25" height="47.41" rx="1.73"/><path class="cls-3" d="M22.78,1.31a.75.75,0,0,0-.6.74V8.71H3.67a2.17,2.17,0,0,0-1.55.68,2.16,2.16,0,0,0-.67,1.55c0,14.33,0,28.47,0,43.66a3,3,0,0,0,.76,2.2,3,3,0,0,0,2.2.79H62.17a3.08,3.08,0,0,0,2.2-.79,3,3,0,0,0,.76-2.18V10.94a2.31,2.31,0,0,0-2.22-2.23H44.39V2.05a.77.77,0,0,0-.74-.74H22.78Zm.88,1.48H42.92V8.71H23.66Zm-20,7.41H62.91a.75.75,0,0,1,.48.23.86.86,0,0,1,.26.51V26.09c-.2,1.38-1.32,2.59-3,3.47a13.14,13.14,0,0,1-5.88,1.37H37V27.78a2.21,2.21,0,0,0-.46-1.34,1.59,1.59,0,0,0-1.27-.69H31.32a1.59,1.59,0,0,0-1.27.69,2.21,2.21,0,0,0-.46,1.34v3.15H11.82a13.14,13.14,0,0,1-5.88-1.37c-1.69-.88-2.81-2.09-3-3.47V10.94a.84.84,0,0,1,.25-.51.72.72,0,0,1,.49-.23Zm27.65,17h3.93c-.07,0,0,0,.1.09a.85.85,0,0,1,.16.46v7.78a.85.85,0,0,1-.16.44s-.07.1-.1.11H31.32a.65.65,0,0,1-.09-.11.85.85,0,0,1-.16-.44V27.78a.85.85,0,0,1,.16-.46c.09-.12.17-.09.09-.09ZM2.93,29.17a9.06,9.06,0,0,0,2.31,1.69,14.41,14.41,0,0,0,6.57,1.55H29.58v3.15a2.16,2.16,0,0,0,.47,1.32,1.63,1.63,0,0,0,1.27.71h3.93a1.65,1.65,0,0,0,1.28-.71A2.16,2.16,0,0,0,37,35.56V32.41H54.76a14.38,14.38,0,0,0,6.57-1.55,9.12,9.12,0,0,0,2.32-1.69V54.62a1.5,1.5,0,0,1-.35,1.14,1.54,1.54,0,0,1-1.13.34H4.41a1.55,1.55,0,0,1-1.14-.34,1.59,1.59,0,0,1-.34-1.16Z"/></g></g></svg>