<svg width="170" height="64" viewBox="0 0 170 64" fill="none" xmlns="http://www.w3.org/2000/svg">
<path d="M12.39 24.7C10.1733 24.7 8.24833 24.175 6.615 23.125C5.005 22.0517 3.75667 20.6167 2.87 18.82C1.98333 17 1.54 14.9933 1.54 12.8C1.54 11.05 1.82 9.41667 2.38 7.9C2.94 6.36 3.72167 5.01833 4.725 3.875C5.72833 2.73167 6.88333 1.83333 8.19 1.18C9.49667 0.526666 10.8967 0.2 12.39 0.2C14.3267 0.2 15.995 0.48 17.395 1.04C18.795 1.57667 19.81 2.23 20.44 3C20.8833 3.53667 21.14 4.28333 21.21 5.24C21.28 6.19667 21.315 7.2 21.315 8.25H20.615C20.1717 5.96333 19.3433 4.28333 18.13 3.21C16.94 2.13667 15.3767 1.6 13.44 1.6C11.9233 1.6 10.5233 1.95 9.24 2.65C7.95667 3.35 6.93 4.51667 6.16 6.15C5.41333 7.78333 5.04 10 5.04 12.8C5.04 14.1067 5.19167 15.39 5.495 16.65C5.82167 17.8867 6.32333 19.0067 7 20.01C7.67667 21.0133 8.54 21.8183 9.59 22.425C10.6633 23.0083 11.9467 23.3 13.44 23.3C15.19 23.3 16.695 22.88 17.955 22.04C19.215 21.2 20.335 19.9867 21.315 18.4L22.015 18.925C20.895 21.1183 19.53 22.635 17.92 23.475C16.31 24.2917 14.4667 24.7 12.39 24.7ZM31.8514 24.35C30.218 24.35 28.8297 23.965 27.6864 23.195C26.543 22.425 25.668 21.3867 25.0614 20.08C24.4547 18.7733 24.1514 17.3383 24.1514 15.775C24.1514 14.1883 24.4547 12.7533 25.0614 11.47C25.668 10.1633 26.543 9.125 27.6864 8.355C28.8297 7.585 30.218 7.2 31.8514 7.2C33.4847 7.2 34.873 7.585 36.0164 8.355C37.1597 9.125 38.0347 10.1633 38.6414 11.47C39.248 12.7533 39.5514 14.1883 39.5514 15.775C39.5514 17.3383 39.248 18.7733 38.6414 20.08C38.0347 21.3867 37.1597 22.425 36.0164 23.195C34.873 23.965 33.4847 24.35 31.8514 24.35ZM31.8514 22.95C32.738 22.95 33.508 22.635 34.1614 22.005C34.8147 21.3517 35.3164 20.4883 35.6664 19.415C36.0397 18.3183 36.2264 17.105 36.2264 15.775C36.2264 14.4217 36.0397 13.2083 35.6664 12.135C35.3164 11.0617 34.8147 10.21 34.1614 9.58C33.508 8.92667 32.738 8.6 31.8514 8.6C30.988 8.6 30.218 8.92667 29.5414 9.58C28.888 10.21 28.3747 11.0617 28.0014 12.135C27.6514 13.2083 27.4764 14.4217 27.4764 15.775C27.4764 17.105 27.6514 18.3183 28.0014 19.415C28.3747 20.4883 28.888 21.3517 29.5414 22.005C30.218 22.635 30.988 22.95 31.8514 22.95ZM43.4809 24V11.75C43.4809 10.7 43.3293 9.86 43.0259 9.23C42.7459 8.57667 42.0809 8.25 41.0309 8.25H40.3309V7.55H43.4809C44.3676 7.55 45.0326 7.67833 45.4759 7.935C45.9426 8.16833 46.2693 8.50667 46.4559 8.95H46.6309C47.0743 8.50667 47.6809 8.11 48.4509 7.76C49.2209 7.38667 50.1309 7.2 51.1809 7.2C51.7876 7.2 52.3476 7.27 52.8609 7.41C53.3976 7.55 53.8759 7.795 54.2959 8.145C54.7393 8.495 55.1009 8.99667 55.3809 9.65C55.9876 8.85667 56.7693 8.25 57.7259 7.83C58.6826 7.41 59.6509 7.2 60.6309 7.2C61.5176 7.2 62.3226 7.375 63.0459 7.725C63.7926 8.075 64.3876 8.705 64.8309 9.615C65.2976 10.5017 65.5309 11.7967 65.5309 13.5V24H62.3809V13.5C62.3809 11.75 62.1359 10.525 61.6459 9.825C61.1559 9.125 60.4676 8.775 59.5809 8.775C58.9043 8.775 58.2043 9.02 57.4809 9.51C56.7576 10 56.2326 10.5133 55.9059 11.05C55.9993 11.3067 56.0459 11.6917 56.0459 12.205C56.0693 12.7183 56.0809 13.15 56.0809 13.5V24H52.9309V13.5C52.9309 11.75 52.6859 10.525 52.1959 9.825C51.7059 9.125 51.0176 8.775 50.1309 8.775C49.4309 8.775 48.7776 8.96167 48.1709 9.335C47.5876 9.70833 47.0743 10.14 46.6309 10.63V24H43.4809ZM76.1414 24.35C74.5081 24.35 73.1431 23.965 72.0464 23.195C70.9731 22.425 70.1564 21.3867 69.5964 20.08C69.0597 18.7733 68.7914 17.3383 68.7914 15.775C68.7914 14.1883 69.0714 12.7533 69.6314 11.47C70.1914 10.1633 70.9964 9.125 72.0464 8.355C73.0964 7.585 74.3447 7.2 75.7914 7.2C77.3781 7.2 78.6847 7.50333 79.7114 8.11C80.7614 8.69333 81.5314 9.55667 82.0214 10.7C82.5347 11.8433 82.7914 13.2433 82.7914 14.9L82.7214 16.3H72.1164C72.1164 18.2133 72.5247 19.8 73.3414 21.06C74.1814 22.32 75.3481 22.95 76.8414 22.95C77.9847 22.95 78.9297 22.705 79.6764 22.215C80.4464 21.725 81.1347 21.0367 81.7414 20.15L82.4414 20.675C81.9281 21.5617 81.3447 22.2733 80.6914 22.81C80.0614 23.3467 79.3614 23.7433 78.5914 24C77.8447 24.2333 77.0281 24.35 76.1414 24.35ZM72.1164 14.9H79.4664C79.4664 12.87 79.1631 11.3183 78.5564 10.245C77.9497 9.14833 77.0281 8.6 75.7914 8.6C75.0914 8.6 74.4614 8.88 73.9014 9.44C73.3647 9.97667 72.9331 10.7233 72.6064 11.68C72.2797 12.6133 72.1164 13.6867 72.1164 14.9ZM100.546 24.35L95.1213 11.575C94.5613 10.2683 94.0246 9.35833 93.5113 8.845C92.9979 8.30833 92.3213 8.01667 91.4812 7.97V7.27C91.5746 7.27 91.7496 7.25833 92.0063 7.235C92.2863 7.21167 92.5079 7.2 92.6713 7.2C93.3946 7.2 94.1063 7.31667 94.8063 7.55C95.5296 7.76 96.2179 8.18 96.8713 8.81C97.5246 9.44 98.1079 10.3617 98.6213 11.575L101.771 19.1L106.671 7.55H108.421L101.246 24.35H100.546ZM117.005 24.35C115.372 24.35 114.007 23.965 112.91 23.195C111.837 22.425 111.02 21.3867 110.46 20.08C109.924 18.7733 109.655 17.3383 109.655 15.775C109.655 14.1883 109.935 12.7533 110.495 11.47C111.055 10.1633 111.86 9.125 112.91 8.355C113.96 7.585 115.209 7.2 116.655 7.2C118.242 7.2 119.549 7.50333 120.575 8.11C121.625 8.69333 122.395 9.55667 122.885 10.7C123.399 11.8433 123.655 13.2433 123.655 14.9L123.585 16.3H112.98C112.98 18.2133 113.389 19.8 114.205 21.06C115.045 22.32 116.212 22.95 117.705 22.95C118.849 22.95 119.794 22.705 120.54 22.215C121.31 21.725 121.999 21.0367 122.605 20.15L123.305 20.675C122.792 21.5617 122.209 22.2733 121.555 22.81C120.925 23.3467 120.225 23.7433 119.455 24C118.709 24.2333 117.892 24.35 117.005 24.35ZM112.98 14.9H120.33C120.33 12.87 120.027 11.3183 119.42 10.245C118.814 9.14833 117.892 8.6 116.655 8.6C115.955 8.6 115.325 8.88 114.765 9.44C114.229 9.97667 113.797 10.7233 113.47 11.68C113.144 12.6133 112.98 13.6867 112.98 14.9ZM131.855 24.35C130.618 24.35 129.603 23.9883 128.81 23.265C128.04 22.5417 127.655 21.3867 127.655 19.8V8.95H125.205V7.55H127.655V4.4L129.405 2.3H130.805V7.55H135.005V8.95H130.805V19.8C130.805 20.85 131.003 21.6433 131.4 22.18C131.82 22.6933 132.438 22.95 133.255 22.95C133.862 22.95 134.363 22.88 134.76 22.74C135.157 22.6 135.53 22.4367 135.88 22.25L136.23 22.95C135.857 23.23 135.343 23.5333 134.69 23.86C134.037 24.1867 133.092 24.35 131.855 24.35ZM138.396 24V11.75C138.396 10.7 138.245 9.86 137.941 9.23C137.661 8.57667 136.996 8.25 135.946 8.25H135.596V7.55H138.396C139.283 7.55 139.948 7.67833 140.391 7.935C140.858 8.19167 141.185 8.58833 141.371 9.125C141.768 8.72833 142.34 8.30833 143.086 7.865C143.856 7.42167 144.743 7.2 145.746 7.2C146.096 7.2 146.47 7.24667 146.866 7.34C147.263 7.41 147.59 7.53833 147.846 7.725C148.103 7.91167 148.325 8.13333 148.511 8.39C148.698 8.64667 148.885 8.95 149.071 9.3L147.671 10.35C147.415 10 147.03 9.74333 146.516 9.58C146.026 9.39333 145.478 9.3 144.871 9.3C144.171 9.3 143.53 9.46333 142.946 9.79C142.363 10.0933 141.896 10.5133 141.546 11.05C141.546 11.1667 141.546 11.3417 141.546 11.575C141.546 11.785 141.546 11.96 141.546 12.1V24H138.396ZM157.775 24.35C156.141 24.35 154.753 23.965 153.61 23.195C152.466 22.425 151.591 21.3867 150.985 20.08C150.378 18.7733 150.075 17.3383 150.075 15.775C150.075 14.1883 150.378 12.7533 150.985 11.47C151.591 10.1633 152.466 9.125 153.61 8.355C154.753 7.585 156.141 7.2 157.775 7.2C159.408 7.2 160.796 7.585 161.94 8.355C163.083 9.125 163.958 10.1633 164.565 11.47C165.171 12.7533 165.475 14.1883 165.475 15.775C165.475 17.3383 165.171 18.7733 164.565 20.08C163.958 21.3867 163.083 22.425 161.94 23.195C160.796 23.965 159.408 24.35 157.775 24.35ZM157.775 22.95C158.661 22.95 159.431 22.635 160.085 22.005C160.738 21.3517 161.24 20.4883 161.59 19.415C161.963 18.3183 162.15 17.105 162.15 15.775C162.15 14.4217 161.963 13.2083 161.59 12.135C161.24 11.0617 160.738 10.21 160.085 9.58C159.431 8.92667 158.661 8.6 157.775 8.6C156.911 8.6 156.141 8.92667 155.465 9.58C154.811 10.21 154.298 11.0617 153.925 12.135C153.575 13.2083 153.4 14.4217 153.4 15.775C153.4 17.105 153.575 18.3183 153.925 19.415C154.298 20.4883 154.811 21.3517 155.465 22.005C156.141 22.635 156.911 22.95 157.775 22.95ZM7.91 52.35C6.32333 52.35 5.075 51.9183 4.165 51.055C3.27833 50.1917 2.835 48.92 2.835 47.24V37.125H0.735V35.55H2.835V32.4L4.585 30.3H7.385V35.55H11.235V37.125H7.385V47.45C7.385 48.7567 7.53667 49.6433 7.84 50.11C8.16667 50.5533 8.62167 50.775 9.205 50.775C9.81167 50.775 10.3483 50.67 10.815 50.46C11.2817 50.25 11.6667 50.04 11.97 49.83L12.46 50.81C11.9933 51.23 11.3867 51.5917 10.64 51.895C9.89333 52.1983 8.98333 52.35 7.91 52.35ZM22.418 52.35C20.7847 52.35 19.3614 51.9767 18.148 51.23C16.9347 50.4833 16.0014 49.4683 15.348 48.185C14.6947 46.8783 14.368 45.4083 14.368 43.775C14.368 41.9083 14.7064 40.345 15.383 39.085C16.0597 37.8017 16.9814 36.8333 18.148 36.18C19.3147 35.5267 20.6214 35.2 22.068 35.2C23.5147 35.2 24.8214 35.4917 25.988 36.075C27.1547 36.6583 28.0764 37.475 28.753 38.525C29.4297 39.575 29.768 40.8 29.768 42.2L29.628 44.405H19.093C19.093 46.715 19.443 48.36 20.143 49.34C20.8664 50.2967 21.7997 50.775 22.943 50.775C24.1564 50.775 25.1364 50.495 25.883 49.935C26.653 49.375 27.3414 48.6867 27.948 47.87L29.033 48.675C28.7064 49.1883 28.263 49.7367 27.703 50.32C27.1664 50.88 26.4664 51.3583 25.603 51.755C24.763 52.1517 23.7014 52.35 22.418 52.35ZM19.093 42.83H25.043C25.043 40.52 24.763 38.9333 24.203 38.07C23.6664 37.2067 22.9547 36.775 22.068 36.775C21.5547 36.775 21.0647 36.9617 20.598 37.335C20.1547 37.7083 19.793 38.3383 19.513 39.225C19.233 40.0883 19.093 41.29 19.093 42.83ZM34.3807 52V40.1C34.3807 39.05 34.2407 38.21 33.9607 37.58C33.6807 36.9267 33.0157 36.6 31.9657 36.6H31.6157V35.55H35.0807C35.7807 35.55 36.3873 35.655 36.9007 35.865C37.414 36.0517 37.799 36.39 38.0557 36.88H38.1957C38.6157 36.5067 39.1873 36.1333 39.9107 35.76C40.6573 35.3867 41.5557 35.2 42.6057 35.2C43.4923 35.2 44.2623 35.3283 44.9157 35.585C45.569 35.8183 46.1057 36.0983 46.5257 36.425C46.969 36.7283 47.2723 36.985 47.4357 37.195C47.9023 36.6817 48.509 36.2267 49.2557 35.83C50.0023 35.41 51.0523 35.2 52.4057 35.2C53.7123 35.2 54.8207 35.4217 55.7307 35.865C56.6407 36.3083 57.329 37.0083 57.7957 37.965C58.2857 38.8983 58.5307 40.1233 58.5307 41.64V52H53.9807V41.605C53.9807 39.9017 53.7123 38.7 53.1757 38C52.639 37.3 51.974 36.95 51.1807 36.95C50.5273 36.95 49.9323 37.0783 49.3957 37.335C48.8823 37.5917 48.474 37.9067 48.1707 38.28C48.3573 38.63 48.4973 39.1083 48.5907 39.715C48.684 40.2983 48.7307 40.94 48.7307 41.64V52H44.1807V41.605C44.1807 39.9017 43.9123 38.7 43.3757 38C42.839 37.3 42.174 36.95 41.3807 36.95C40.9373 36.95 40.4823 37.0783 40.0157 37.335C39.5723 37.5683 39.2107 37.8133 38.9307 38.07V52H34.3807ZM63.9967 58.65V40.1C63.9967 39.05 63.8567 38.21 63.5767 37.58C63.2967 36.9267 62.6317 36.6 61.5817 36.6H61.2317V35.55H64.6967C65.49 35.55 66.1083 35.655 66.5517 35.865C67.0183 36.075 67.38 36.46 67.6367 37.02C68.0567 36.6467 68.6517 36.25 69.4217 35.83C70.1917 35.41 71.1833 35.2 72.3967 35.2C74.03 35.2 75.3833 35.585 76.4567 36.355C77.5533 37.1017 78.37 38.1283 78.9067 39.435C79.4667 40.7183 79.7467 42.165 79.7467 43.775C79.7467 45.3617 79.4667 46.8083 78.9067 48.115C78.37 49.4217 77.5417 50.46 76.4217 51.23C75.325 51.9767 73.925 52.35 72.2217 52.35C71.4517 52.35 70.7283 52.2333 70.0517 52C69.3983 51.79 68.8967 51.5567 68.5467 51.3V58.65H63.9967ZM71.5217 50.775C72.4083 50.775 73.0967 50.4717 73.5867 49.865C74.1 49.2583 74.4617 48.43 74.6717 47.38C74.905 46.3067 75.0217 45.105 75.0217 43.775C75.0217 42.4217 74.905 41.22 74.6717 40.17C74.4617 39.12 74.1117 38.2917 73.6217 37.685C73.155 37.0783 72.5133 36.775 71.6967 36.775C70.9033 36.775 70.2617 36.9033 69.7717 37.16C69.2817 37.4167 68.8733 37.685 68.5467 37.965V49.725C68.8267 49.9583 69.2467 50.1917 69.8067 50.425C70.3667 50.6583 70.9383 50.775 71.5217 50.775ZM103.455 52V40.1C103.455 39.05 103.315 38.21 103.035 37.58C102.755 36.9267 102.09 36.6 101.04 36.6H100.69V35.55H104.155C104.948 35.55 105.567 35.655 106.01 35.865C106.477 36.0517 106.838 36.3783 107.095 36.845C107.515 36.4717 108.087 36.11 108.81 35.76C109.557 35.3867 110.455 35.2 111.505 35.2C112.018 35.2 112.485 35.2583 112.905 35.375C113.325 35.4917 113.687 35.6667 113.99 35.9C114.387 36.18 114.678 36.5183 114.865 36.915C115.075 37.3117 115.18 37.4983 115.18 37.475L113.395 38.84C113.185 38.5367 112.87 38.2333 112.45 37.93C112.053 37.6267 111.563 37.475 110.98 37.475C110.233 37.475 109.603 37.58 109.09 37.79C108.577 38 108.168 38.2567 107.865 38.56C107.912 38.98 107.947 39.3183 107.97 39.575C107.993 39.8317 108.005 40.0533 108.005 40.24V52H103.455ZM122.949 52.35C121.969 52.35 121.106 52.2333 120.359 52C119.636 51.7667 119.017 51.4517 118.504 51.055C118.014 50.635 117.641 50.1333 117.384 49.55C117.127 48.9667 116.999 48.325 116.999 47.625C116.999 46.505 117.256 45.56 117.769 44.79C118.306 43.9967 119.262 43.4017 120.639 43.005C122.016 42.585 123.952 42.375 126.449 42.375H126.974C126.974 40.975 126.846 39.8667 126.589 39.05C126.332 38.2333 125.947 37.65 125.434 37.3C124.944 36.95 124.349 36.775 123.649 36.775C122.856 36.775 122.144 36.9733 121.514 37.37C120.884 37.7667 120.429 38.6183 120.149 39.925H118.224C118.224 39.3183 118.259 38.7 118.329 38.07C118.422 37.44 118.679 36.8917 119.099 36.425C119.519 35.9583 120.207 35.6433 121.164 35.48C122.144 35.2933 123.206 35.2 124.349 35.2C125.492 35.2 126.507 35.3517 127.394 35.655C128.281 35.9583 129.027 36.4133 129.634 37.02C130.264 37.6267 130.731 38.3967 131.034 39.33C131.361 40.24 131.524 41.3133 131.524 42.55V52H128.549L127.324 50.425H127.149C126.846 50.915 126.332 51.3583 125.609 51.755C124.886 52.1517 123.999 52.35 122.949 52.35ZM123.999 50.6C124.769 50.6 125.411 50.3433 125.924 49.83C126.437 49.3167 126.787 48.815 126.974 48.325V43.95H126.449C124.769 43.95 123.556 44.2533 122.809 44.86C122.086 45.4667 121.724 46.3883 121.724 47.625C121.724 48.605 121.922 49.3517 122.319 49.865C122.739 50.355 123.299 50.6 123.999 50.6ZM141.957 52.35C140.371 52.35 139.122 51.9183 138.212 51.055C137.326 50.1917 136.882 48.92 136.882 47.24V37.125H134.782V35.55H136.882V32.4L138.632 30.3H141.432V35.55H145.282V37.125H141.432V47.45C141.432 48.7567 141.584 49.6433 141.887 50.11C142.214 50.5533 142.669 50.775 143.252 50.775C143.859 50.775 144.396 50.67 144.862 50.46C145.329 50.25 145.714 50.04 146.017 49.83L146.507 50.81C146.041 51.23 145.434 51.5917 144.687 51.895C143.941 52.1983 143.031 52.35 141.957 52.35ZM156.78 52.35C155.054 52.35 153.56 51.9767 152.3 51.23C151.04 50.46 150.072 49.4217 149.395 48.115C148.719 46.8083 148.38 45.3617 148.38 43.775C148.38 42.165 148.719 40.7183 149.395 39.435C150.072 38.1283 151.04 37.1017 152.3 36.355C153.56 35.585 155.054 35.2 156.78 35.2C158.53 35.2 160.024 35.585 161.26 36.355C162.52 37.1017 163.489 38.1283 164.165 39.435C164.842 40.7183 165.18 42.165 165.18 43.775C165.18 45.3617 164.842 46.8083 164.165 48.115C163.489 49.4217 162.52 50.46 161.26 51.23C160.024 51.9767 158.53 52.35 156.78 52.35ZM156.78 50.775C157.597 50.775 158.274 50.4717 158.81 49.865C159.37 49.2583 159.779 48.43 160.035 47.38C160.315 46.3067 160.455 45.105 160.455 43.775C160.455 42.4217 160.315 41.22 160.035 40.17C159.779 39.12 159.37 38.2917 158.81 37.685C158.274 37.0783 157.597 36.775 156.78 36.775C155.964 36.775 155.275 37.0783 154.715 37.685C154.179 38.2917 153.77 39.12 153.49 40.17C153.234 41.22 153.105 42.4217 153.105 43.775C153.105 45.105 153.234 46.3067 153.49 47.38C153.77 48.43 154.179 49.2583 154.715 49.865C155.275 50.4717 155.964 50.775 156.78 50.775Z" fill="white"/>
<path d="M87.876 52.1359C86.3725 51.4977 85.2082 50.5979 84.3831 49.4365C83.5579 48.2751 83.0954 46.9761 82.9954 45.5395C82.9046 44.0815 83.1783 42.6007 83.8164 41.0972C84.5458 39.3789 85.4681 38.0721 86.5833 37.1766C87.7076 36.2597 88.9344 35.7285 90.2636 35.5829C91.5928 35.4374 92.9232 35.6472 94.2549 36.2125C95.5865 36.7778 96.6753 37.5568 97.5213 38.5496C98.3673 39.5424 98.8966 40.6543 99.1092 41.8852C99.3219 43.1161 99.1546 44.376 98.6076 45.6647L97.6172 47.6397L87.9197 43.5233C87.0171 45.6497 86.6965 47.3007 86.9579 48.4763C87.25 49.6395 87.9222 50.4445 88.9747 50.8913C90.0915 51.3653 91.103 51.4905 92.0092 51.2668C92.9368 51.0522 93.8393 50.6875 94.7169 50.1728L95.4011 51.3378C94.8998 51.6826 94.2775 52.0142 93.534 52.3323C92.8212 52.6381 91.99 52.8049 91.0403 52.8327C90.1121 52.8696 89.0573 52.6374 87.876 52.1359ZM88.5351 42.0735L94.0121 44.3984C94.9147 42.272 95.2769 40.7021 95.0987 39.6886C94.9421 38.6842 94.4556 38.0087 93.6395 37.6623C93.1669 37.4617 92.6429 37.4421 92.0675 37.6034C91.5135 37.7738 90.9345 38.2124 90.3303 38.9192C89.7352 39.6045 89.1368 40.656 88.5351 42.0735Z" fill="white"/>
</svg>
